<?xml version="1.0" encoding="UTF-8" standalone="no"?>
<svg
   version="1.0"
   width="1856.2087pt"
   height="613.17877pt"
   viewBox="0 0 1856.2087 613.17876"
   preserveAspectRatio="xMidYMid"
   id="svg61"
   sodipodi:docname="Bailey Dominguez.svg"
   inkscape:version="1.3.2 (091e20e, 2023-11-25, custom)"
   inkscape:export-filename="piper3.png"
   inkscape:export-xdpi="96"
   inkscape:export-ydpi="96"
   xmlns:inkscape="http://www.inkscape.org/namespaces/inkscape"
   xmlns:sodipodi="http://sodipodi.sourceforge.net/DTD/sodipodi-0.dtd"
   xmlns="http://www.w3.org/2000/svg"
   xmlns:svg="http://www.w3.org/2000/svg">
  <defs
     id="defs61">
    <rect
       x="823.59985"
       y="5.5275159"
       width="1873.8279"
       height="480.89389"
       id="rect2" />
    <rect
       x="852.06256"
       y="52.765343"
       width="1227.2828"
       height="683.99518"
       id="rect1" />
  </defs>
  <sodipodi:namedview
     id="namedview61"
     pagecolor="#505050"
     bordercolor="#ffffff"
     borderopacity="1"
     inkscape:showpageshadow="0"
     inkscape:pageopacity="0"
     inkscape:pagecheckerboard="1"
     inkscape:deskcolor="#505050"
     inkscape:document-units="pt"
     inkscape:zoom="0.25"
     inkscape:cx="1094"
     inkscape:cy="430"
     inkscape:window-width="1920"
     inkscape:window-height="1027"
     inkscape:window-x="1912"
     inkscape:window-y="-8"
     inkscape:window-maximized="1"
     inkscape:current-layer="svg61"
     showguides="true" />
  <metadata
     id="metadata1">
Created by potrace 1.10, written by Peter Selinger 2001-2011
</metadata>
  <g
     transform="matrix(0.10847785,0,0,-0.10847785,-119.48326,598.50378)"
     fill="#000000"
     stroke="none"
     id="g61"
     style="display:inline">
    <path
       d="m 4310,5380 c 0,-17 7,-20 40,-20 34,0 40,3 40,20 0,17 -3,19 -19,10 -13,-7 -22,-7 -26,0 -11,18 -35,11 -35,-10 z"
       id="path1" />
    <path
       d="m 4458,5368 c 9,-9 15,-9 24,0 9,9 7,12 -12,12 -19,0 -21,-3 -12,-12 z"
       id="path2" />
    <path
       d="m 4555,5308 c -9,-22 4,-43 17,-30 7,7 7,16 0,29 -10,17 -11,17 -17,1 z"
       id="path3" />
    <path
       d="m 3503,4620 c -3,-11 -9,-20 -14,-20 -5,0 -9,-6 -9,-13 0,-19 -49,-77 -139,-167 -42,-42 -91,-96 -110,-120 -41,-54 -131,-139 -148,-140 -18,0 -166,-157 -235,-250 -35,-47 -78,-114 -95,-150 -65,-136 -93,-201 -93,-214 0,-32 -62,-164 -112,-237 -21,-31 -38,-59 -38,-63 0,-3 -20,-40 -45,-80 -25,-41 -45,-77 -45,-80 0,-3 -17,-40 -37,-83 -37,-78 -100,-247 -110,-293 -3,-14 -11,-39 -19,-57 -8,-17 -14,-38 -14,-47 0,-8 -7,-32 -16,-53 -31,-71 -43,-98 -48,-113 -4,-8 -17,-33 -31,-55 -13,-22 -24,-51 -25,-65 0,-21 -20,-70 -71,-172 -5,-10 -9,-23 -9,-30 -1,-7 -14,-29 -30,-48 -17,-19 -30,-39 -30,-46 0,-6 -9,-19 -20,-29 -11,-10 -20,-22 -20,-26 0,-5 -23,-37 -51,-72 -28,-35 -56,-73 -62,-85 -31,-54 -101,-152 -108,-152 -5,0 -9,-5 -9,-11 0,-6 -20,-37 -45,-69 -25,-32 -45,-65 -45,-73 0,-8 -7,-17 -15,-21 -8,-3 -15,-14 -15,-24 0,-11 -7,-25 -15,-32 -8,-7 -15,-20 -15,-30 0,-10 -7,-20 -15,-24 -8,-3 -15,-14 -15,-24 0,-11 -7,-25 -15,-32 -8,-7 -15,-23 -15,-35 0,-12 -7,-28 -15,-35 -8,-7 -15,-23 -15,-35 0,-12 -6,-28 -14,-34 -8,-7 -17,-23 -20,-36 -4,-14 -11,-25 -16,-25 -6,0 -10,-13 -10,-28 0,-16 -7,-37 -15,-48 -8,-10 -15,-33 -15,-51 0,-17 -5,-44 -11,-60 -12,-28 -34,-142 -47,-243 -4,-30 -12,-62 -17,-70 -6,-8 -15,-51 -22,-95 -22,-151 -33,-208 -42,-219 -4,-6 -11,-42 -15,-80 -4,-38 -11,-76 -15,-85 -5,-9 -11,-44 -15,-78 l -7,-63 h 233 c 144,0 228,4 222,9 -5,5 -27,11 -49,13 -35,3 -40,6 -40,28 0,19 5,25 22,25 33,0 39,13 14,36 -13,12 -27,35 -33,51 -6,15 -19,33 -29,39 -27,14 -24,47 5,60 26,12 37,31 56,95 16,55 8,67 -41,59 -22,-4 -39,-3 -39,2 0,5 16,28 36,51 30,35 34,45 24,57 -7,8 -22,15 -34,15 -24,0 -46,17 -46,36 0,6 18,14 41,18 34,5 39,9 34,26 -8,25 25,42 72,38 51,-4 51,15 1,32 -50,18 -78,60 -57,86 11,13 10,15 -2,14 -31,-5 -49,1 -49,15 0,11 11,15 36,15 31,0 37,4 50,37 8,21 22,51 30,66 19,34 13,43 -46,60 l -44,13 47,27 c 26,16 45,32 42,36 -2,5 -24,12 -47,16 -40,6 -41,7 -18,16 31,13 101,1 116,-18 7,-10 18,-13 32,-9 27,9 29,36 3,36 -10,0 -24,7 -31,15 -7,8 -29,15 -49,15 -51,0 -67,12 -46,34 9,9 24,17 33,18 9,1 24,2 32,4 8,1 20,2 27,3 6,1 13,16 15,34 l 3,32 97,-3 c 115,-4 159,10 83,26 -34,7 -55,19 -68,36 -10,14 -27,26 -37,26 -10,0 -25,3 -34,6 -23,9 -3,39 34,52 31,11 41,32 16,32 -16,0 -46,26 -46,41 0,5 13,9 30,9 21,0 40,-11 70,-41 38,-38 43,-40 80,-34 30,5 47,2 65,-9 26,-17 95,-22 95,-7 0,5 -16,12 -36,15 -27,6 -33,10 -25,20 18,22 -9,36 -70,36 -83,0 -90,4 -72,42 14,28 14,32 -6,59 l -21,28 22,13 c 31,16 168,12 225,-7 24,-8 53,-15 63,-15 11,0 20,-4 20,-10 0,-5 9,-10 20,-10 31,0 92,-28 86,-39 -7,-11 48,-55 82,-66 12,-3 22,-11 22,-16 0,-5 11,-9 25,-9 27,0 35,24 11,33 -9,4 -12,14 -9,25 2,11 -3,32 -13,47 -18,27 -18,28 6,47 22,18 23,21 7,29 -9,6 -17,14 -17,19 0,16 36,12 50,-5 7,-9 29,-15 52,-15 22,0 67,-7 100,-16 42,-10 64,-12 71,-5 7,7 2,13 -16,20 -15,6 -27,14 -27,19 0,5 -34,12 -76,15 -54,4 -82,11 -96,24 -57,52 -77,76 -72,84 9,15 44,10 44,-6 0,-12 13,-15 61,-15 54,0 63,-3 87,-29 15,-16 39,-33 55,-36 15,-4 30,-11 33,-16 7,-12 44,-11 44,1 0,5 -8,14 -19,19 -10,6 -22,22 -25,36 -4,14 -13,25 -21,25 -10,0 -15,10 -15,28 0,15 -5,33 -11,39 -7,7 -7,13 -1,17 6,3 13,2 17,-4 3,-5 18,-7 34,-4 22,5 29,2 33,-14 5,-17 12,-20 45,-15 30,4 44,1 54,-11 57,-68 90,-93 129,-99 22,-3 55,-2 73,3 90,23 103,21 149,-21 23,-21 49,-37 56,-34 8,3 27,5 43,5 16,0 29,4 29,8 0,5 -13,7 -28,4 -22,-3 -32,2 -46,23 -17,26 -17,28 2,45 11,11 35,23 53,28 l 34,9 -30,12 c -16,6 -36,14 -43,16 -7,3 -12,15 -10,27 3,20 8,23 41,20 41,-4 48,9 21,39 -14,16 -14,20 7,48 18,24 26,28 40,20 27,-14 31,-26 14,-43 -13,-13 -13,-15 5,-21 23,-7 27,-35 5,-35 -8,0 -15,-9 -15,-20 0,-11 5,-20 10,-20 6,0 8,-11 4,-25 -5,-21 -3,-25 18,-25 13,0 29,5 35,11 8,8 13,8 17,0 4,-6 22,-11 39,-11 41,0 62,-14 54,-34 -5,-11 -1,-16 13,-16 12,0 20,7 20,16 0,12 6,15 23,10 130,-39 218,0 148,66 -31,29 -33,48 -5,48 8,0 17,-6 20,-14 3,-8 28,-20 55,-26 46,-11 50,-15 47,-39 -3,-25 -2,-26 52,-25 30,0 78,2 107,4 39,3 56,0 70,-13 23,-20 71,-23 133,-8 25,5 65,14 90,18 36,6 46,12 48,30 4,29 45,40 78,22 23,-12 27,-11 50,17 17,19 27,25 30,17 8,-18 49,-16 64,2 13,15 84,16 109,1 6,-4 11,-2 11,3 0,6 -7,11 -15,11 -25,0 -17,20 13,32 22,9 24,12 9,15 -10,3 -27,-3 -37,-12 -29,-26 -53,-14 -77,38 -15,30 -29,47 -41,47 -9,0 -39,20 -65,45 -46,44 -60,75 -34,75 16,-1 72,-51 80,-73 7,-18 37,-24 37,-8 0,6 -9,16 -20,24 -20,14 -20,14 0,32 20,18 21,18 48,-8 16,-15 39,-27 53,-27 14,0 31,-6 37,-12 10,-10 15,-10 22,2 6,9 6,16 0,18 -6,2 -10,10 -10,18 0,8 -8,14 -17,14 -22,1 -58,29 -67,53 -4,13 -12,17 -27,12 -19,-6 -21,-4 -16,14 3,11 1,24 -5,27 -5,3 -6,19 -3,35 6,25 4,29 -14,29 -12,0 -21,6 -21,15 0,8 7,15 15,15 8,0 15,7 15,15 0,9 -9,15 -25,15 -18,0 -25,5 -25,19 0,11 5,23 10,26 6,3 10,15 10,26 0,23 -28,26 -37,4 -5,-13 -8,-13 -20,5 -8,11 -23,20 -35,20 -11,0 -33,11 -50,25 -33,28 -88,34 -88,11 0,-8 16,-24 35,-36 38,-23 39,-45 2,-30 -41,16 -87,41 -93,51 -3,5 0,17 8,26 7,9 13,28 13,42 0,25 2,26 58,24 39,-1 57,2 57,10 0,14 -35,39 -65,47 -11,4 -20,15 -21,25 -2,38 -16,55 -52,61 -52,9 -92,35 -92,59 0,11 -4,25 -8,31 -8,12 -54,25 -89,26 -12,0 -24,6 -27,14 -8,21 -34,17 -41,-5 -7,-23 -47,-40 -53,-22 -2,6 -12,11 -21,11 -10,0 -30,9 -44,20 -35,27 -51,26 -43,-4 3,-14 2,-28 -4,-31 -22,-14 -7,-34 35,-46 32,-9 45,-19 45,-31 0,-21 -18,-23 -44,-3 -16,12 -23,12 -57,-8 -36,-20 -39,-21 -55,-5 -18,17 -12,38 12,38 8,0 14,5 14,11 0,6 -9,9 -20,6 -24,-6 -47,17 -28,29 7,5 24,7 37,5 19,-2 22,1 17,14 -3,9 -6,19 -6,21 0,3 -8,1 -17,-4 -25,-13 -83,-3 -83,14 0,8 9,14 20,14 26,0 26,17 0,25 -12,4 -26,0 -36,-9 -8,-9 -20,-16 -26,-16 -6,0 -16,-7 -23,-17 -7,-10 -17,-13 -25,-8 -10,6 -9,10 4,17 27,15 19,38 -14,38 -16,0 -30,-4 -30,-10 0,-5 -9,-10 -21,-10 -15,0 -19,5 -15,15 6,16 2,19 -47,30 -17,3 -35,18 -45,35 -16,29 -62,43 -62,20 0,-18 -22,-10 -27,10 -3,10 -16,26 -29,35 -13,8 -24,24 -24,34 0,10 -9,30 -21,45 l -20,26 h 21 c 13,0 24,8 27,20 5,19 23,29 23,12 0,-5 18,-20 40,-35 44,-29 47,-26 25,26 -12,30 -20,36 -43,35 -16,-1 -34,2 -41,6 -18,12 -13,36 9,36 21,0 28,24 10,35 -6,3 -7,18 -4,32 4,16 2,28 -7,34 -11,7 -11,9 3,9 10,0 22,-8 27,-19 16,-29 62,-56 71,-41 5,7 14,10 22,7 11,-4 13,2 10,24 -3,19 -10,29 -21,29 -25,0 -71,23 -71,36 0,6 -9,21 -20,34 -14,16 -26,21 -44,16 -21,-5 -27,-1 -42,29 -20,43 -13,71 14,56 13,-7 22,-7 29,0 6,6 21,8 34,4 13,-4 46,-8 74,-9 47,-1 50,0 47,23 -1,13 3,30 9,37 6,7 8,18 4,23 -3,6 0,21 6,33 19,34 21,174 4,214 -8,19 -18,34 -23,34 -23,0 -43,255 -22,276 6,6 13,58 17,115 6,111 16,151 34,147 8,-2 21,35 36,97 13,55 30,122 38,149 8,26 15,55 15,62 0,21 -21,17 -27,-6 z M 3200,3333 c 0,-5 -5,-15 -10,-23 -8,-12 -10,-11 -10,8 0,12 5,22 10,22 6,0 10,-3 10,-7 z m 172,-125 c -9,-9 -12,-7 -12,12 0,19 3,21 12,12 9,-9 9,-15 0,-24 z m 8,-367 c 0,-26 -13,-33 -45,-25 -25,6 -25,7 -9,25 23,25 54,25 54,0 z m 50,-61 25,-20 h -37 c -31,0 -38,4 -38,20 0,25 18,25 50,0 z m 228,-59 c 22,-19 29,-45 14,-55 -4,-2 -22,13 -40,35 -27,32 -30,39 -15,39 10,-1 28,-9 41,-19 z m 385,-3 c 21,-11 21,-12 -13,-19 -39,-8 -65,6 -40,21 20,13 27,12 53,-2 z m -453,-12 c 0,-22 -17,-28 -40,-16 -29,16 -25,30 10,30 19,0 30,-5 30,-14 z m 45,-55 c 6,-11 -33,-36 -42,-27 -3,3 -3,12 0,21 7,17 33,20 42,6 z m -147,-68 c 2,-8 -6,-13 -22,-13 -17,0 -26,5 -26,16 0,19 41,16 48,-3 z m 217,7 c 12,10 18,10 29,1 8,-7 25,-9 40,-5 29,7 31,2 16,-27 -12,-21 -45,-26 -56,-8 -4,6 -20,8 -40,4 -19,-3 -34,-2 -34,3 0,5 -9,12 -21,15 -12,3 -18,10 -15,16 4,6 16,6 36,-1 23,-7 34,-7 45,2 z m 469,4 c 22,-9 20,-24 -3,-24 -21,0 -34,13 -24,24 8,7 8,7 27,0 z m 76,-2 c 0,-13 -12,-22 -22,-16 -10,6 -1,24 13,24 5,0 9,-4 9,-8 z m -516,-177 c 4,-12 -4,-15 -46,-15 -69,0 -50,19 28,29 7,0 14,-6 18,-14 z m 754,-156 c -2,-6 -8,-10 -13,-10 -5,0 -11,4 -13,10 -2,6 4,11 13,11 9,0 15,-5 13,-11 z m -1620,-37 c 3,-9 -2,-13 -14,-10 -9,1 -19,9 -22,16 -3,9 2,13 14,10 9,-1 19,-9 22,-16 z m 1132,3 c 0,-11 -11,-15 -40,-15 -38,0 -49,8 -33,23 3,4 21,7 40,7 23,0 33,-5 33,-15 z m 100,0 c 0,-8 -7,-15 -15,-15 -8,0 -15,7 -15,15 0,8 7,15 15,15 8,0 15,-7 15,-15 z m -255,-6 c -4,-6 -13,-8 -20,-5 -7,2 -16,-2 -19,-10 -3,-8 1,-17 9,-20 16,-7 21,-34 5,-34 -5,0 -20,-11 -34,-25 -31,-31 -62,-32 -87,-2 -20,23 -25,57 -9,57 5,0 17,9 27,19 22,24 141,43 128,20 z m -907,-26 c -10,-2 -26,-2 -35,0 -10,3 -2,5 17,5 19,0 27,-2 18,-5 z m 145,-28 c -3,-13 -48,-18 -80,-10 -13,3 -21,10 -18,16 9,13 101,7 98,-6 z m 1064,0 c 3,-9 3,-19 -1,-22 -9,-10 -58,16 -51,27 10,16 45,12 52,-5 z m -589,-37 c 2,-11 -35,-13 -204,-10 -205,2 -254,7 -254,22 0,11 93,23 117,16 10,-3 34,-5 53,-6 149,-1 187,1 198,9 17,11 86,-13 90,-31 z m 382,-4 c 0,-10 -7,-14 -22,-12 -32,5 -35,28 -4,28 17,0 26,-5 26,-16 z m 166,-19 c 8,-19 42,-29 57,-17 8,7 18,6 31,-4 17,-12 17,-14 4,-14 -9,0 -24,-8 -34,-17 -22,-22 -75,-24 -91,-3 -10,12 -15,13 -32,3 -25,-16 -31,-16 -31,-3 0,5 14,16 30,25 17,9 30,22 30,30 0,19 29,19 36,0 z m -444,-27 c 30,4 39,2 34,-6 -4,-7 -16,-12 -27,-12 -10,0 -19,-4 -19,-10 0,-5 -7,-10 -15,-10 -8,0 -15,7 -15,15 0,8 -4,15 -10,15 -5,0 -10,5 -10,12 0,9 3,9 11,1 6,-6 28,-9 51,-5 z m -381,-21 c -1,-12 -15,-9 -19,4 -3,6 1,10 8,8 6,-3 11,-8 11,-12 z m 1089,-12 c 0,-8 -6,-15 -14,-15 -17,0 -28,14 -19,24 12,12 33,6 33,-9 z m -455,-24 c 8,-28 54,-37 71,-14 11,15 15,16 23,4 5,-8 25,-15 45,-15 20,-1 36,-4 36,-8 0,-5 -5,-8 -10,-8 -20,0 -23,-31 -4,-45 14,-10 16,-17 8,-25 -16,-16 -44,-1 -44,24 0,15 -9,27 -25,34 -36,17 -40,16 -112,-20 l -64,-31 -22,21 c -26,26 -19,34 30,37 48,3 46,1 33,25 -6,11 -8,25 -5,30 10,17 33,11 40,-9 z m 516,-36 c -1,-15 -24,-12 -29,3 -3,9 2,13 12,10 10,-1 17,-7 17,-13 z m -2301,-5 c 0,-5 -7,-10 -15,-10 -8,0 -15,5 -15,10 0,6 7,10 15,10 8,0 15,-4 15,-10 z m 1148,-6 c -9,-9 -21,-13 -27,-10 -20,13 -11,26 16,26 25,0 26,-1 11,-16 z m 498,5 c 3,-6 1,-16 -5,-22 -9,-9 -14,-8 -21,3 -5,8 -10,18 -10,23 0,11 28,8 36,-4 z m 449,-13 c 0,-9 -13,-25 -28,-34 -24,-15 -29,-15 -37,-2 -14,23 -12,28 18,43 33,18 47,16 47,-7 z m -996,-34 c 11,7 26,8 37,3 16,-8 13,-10 -14,-13 -18,-2 -36,-10 -39,-18 -8,-21 -41,-17 -48,6 -4,12 -1,28 6,36 10,12 14,12 26,-6 11,-16 17,-18 32,-8 z m 750,-1 c 10,-6 4,-11 -20,-16 -19,-4 -40,-12 -47,-18 -21,-16 -25,0 -5,21 19,22 49,27 72,13 z m 488,-7 c 3,-8 -1,-23 -10,-32 -15,-14 -17,-14 -23,1 -8,21 1,47 16,47 6,0 13,-7 17,-16 z m -2343,-20 c 9,-3 13,-10 10,-15 -6,-10 -45,-12 -69,-3 -13,5 -14,8 -3,15 15,10 40,11 62,3 z m 336,-19 c 0,-8 -9,-15 -20,-15 -11,0 -20,7 -20,15 0,8 9,15 20,15 11,0 20,-7 20,-15 z m 1691,-18 c -1,-12 -15,-9 -19,4 -3,6 1,10 8,8 6,-3 11,-8 11,-12 z m -1973,-35 c 3,-9 -2,-13 -14,-10 -9,1 -19,9 -22,16 -3,9 2,13 14,10 9,-1 19,-9 22,-16 z m 401,-59 c 2,-2 -16,-3 -41,-3 -45,0 -67,17 -53,41 5,6 72,-20 94,-38 z m 856,37 c 4,-6 -5,-10 -19,-10 -14,0 -26,5 -26,10 0,6 9,10 19,10 11,0 23,-4 26,-10 z m -385,-64 c 0,-8 9,-16 21,-19 12,-3 19,-11 17,-18 -7,-22 -29,-22 -35,-1 -2,11 -14,23 -26,26 -17,4 -18,7 -8,20 14,17 31,12 31,-8 z m -925,-63 c 11,-7 25,-13 32,-13 6,0 24,-11 39,-25 25,-23 26,-27 12,-41 -15,-15 -17,-14 -23,5 -3,12 -15,21 -26,21 -10,0 -28,9 -38,19 -11,11 -29,25 -41,31 -11,6 -18,15 -15,20 6,10 30,4 60,-17 z"
       id="path4" />
    <path
       d="m 3747,2174 c -10,-11 3,-24 24,-24 23,0 25,15 3,24 -19,7 -19,7 -27,0 z"
       id="path5" />
    <path
       d="m 4560,4471 c 0,-20 17,-37 27,-28 7,8 -7,47 -18,47 -5,0 -9,-9 -9,-19 z"
       id="path6" />
    <path
       d="m 3702,4125 c 1,-68 -24,-121 -65,-138 -17,-8 -38,-21 -46,-31 -12,-14 -10,-19 13,-41 14,-13 26,-29 26,-35 0,-20 41,-10 65,16 28,30 55,26 55,-9 0,-28 17,-47 42,-47 12,0 18,7 18,21 0,21 9,22 51,5 9,-4 27,2 42,15 23,17 27,26 22,53 -6,28 -3,34 21,45 22,10 25,14 13,22 -7,5 -22,9 -31,9 -11,0 -18,8 -18,19 0,14 -5,18 -19,14 -23,-6 -37,13 -22,31 13,16 3,28 -13,15 -48,-41 -60,-48 -67,-43 -5,3 -2,18 6,34 18,35 19,76 3,86 -6,4 -31,8 -54,8 l -43,1 z m 168,-117 c 30,-10 32,-12 14,-19 -26,-10 -37,-10 -53,0 -7,5 -10,14 -7,20 9,13 6,13 46,-1 z"
       id="path7" />
    <path
       d="m 4330,4105 c -7,-9 -10,-18 -7,-22 8,-7 37,15 37,28 0,14 -16,11 -30,-6 z"
       id="path8" />
    <path
       d="m 4460,4062 c 0,-19 12,-42 22,-42 14,0 5,43 -9,48 -7,2 -13,-1 -13,-6 z"
       id="path9" />
    <path
       d="m 4200,3895 c -12,-14 -6,-35 9,-35 12,0 21,39 11,45 -4,3 -13,-2 -20,-10 z"
       id="path10" />
    <path
       d="m 4350,3900 c 0,-5 9,-10 20,-10 11,0 20,5 20,10 0,6 -9,10 -20,10 -11,0 -20,-4 -20,-10 z"
       id="path11" />
    <path
       d="m 4426,3855 c 7,-18 0,-19 -26,-3 -25,16 -32,8 -24,-30 7,-35 25,-40 69,-20 30,13 32,29 7,51 -23,21 -33,22 -26,2 z"
       id="path12" />
    <path
       d="m 4230,3851 c 0,-6 5,-13 10,-16 6,-3 10,-17 10,-31 0,-27 24,-33 34,-9 8,23 -15,65 -36,65 -10,0 -18,-4 -18,-9 z"
       id="path13" />
    <path
       d="m 5607,3809 c -3,-11 -14,-23 -25,-26 -11,-3 -22,-16 -25,-31 -3,-15 -9,-35 -12,-44 -5,-13 -2,-18 9,-18 9,0 16,8 16,20 0,13 7,20 19,20 13,0 18,5 14,18 -2,10 5,26 16,36 11,10 17,24 14,32 -8,20 -20,17 -26,-7 z"
       id="path14" />
    <path
       d="m 3836,3773 c -9,-10 -7,-101 3,-107 11,-7 21,27 21,71 0,31 -11,49 -24,36 z"
       id="path15" />
    <path
       d="m 4192,3768 c -18,-18 -14,-46 8,-53 13,-4 20,-15 20,-31 0,-30 6,-30 36,-1 26,25 32,57 9,57 -8,0 -19,9 -25,20 -12,23 -30,26 -48,8 z"
       id="path16" />
    <path
       d="m 4305,3770 c -9,-14 1,-27 25,-33 16,-4 20,0 20,19 0,17 -6,24 -19,24 -11,0 -23,-4 -26,-10 z"
       id="path17" />
    <path
       d="m 5400,3760 c -17,-32 -14,-124 4,-153 25,-37 53,-35 65,6 5,17 16,49 24,70 7,20 12,51 9,67 -4,29 -6,31 -49,28 -28,-2 -48,-9 -53,-18 z"
       id="path18" />
    <path
       d="m 4616,3743 c -11,-11 -6,-23 9,-23 8,0 15,4 15,9 0,13 -16,22 -24,14 z"
       id="path19" />
    <path
       d="m 5320,3735 c -7,-8 -27,-15 -44,-15 -43,0 -63,-31 -40,-64 8,-14 29,-28 45,-31 16,-4 31,-11 34,-16 8,-12 42,-12 50,0 7,12 -17,141 -26,141 -4,0 -12,-7 -19,-15 z"
       id="path20" />
    <path
       d="m 4850,3690 c 0,-5 9,-10 21,-10 11,0 17,5 14,10 -3,6 -13,10 -21,10 -8,0 -14,-4 -14,-10 z"
       id="path21" />
    <path
       d="m 4787,3676 c -12,-10 -15,-16 -7,-21 16,-10 40,2 40,20 0,18 -9,19 -33,1 z"
       id="path22" />
    <path
       d="m 5962,3678 c 6,-18 28,-21 28,-4 0,9 -7,16 -16,16 -9,0 -14,-5 -12,-12 z"
       id="path23" />
    <path
       d="m 4863,3629 c -27,-32 -28,-39 -8,-39 9,0 20,12 26,27 14,38 7,44 -18,12 z"
       id="path24" />
    <path
       d="m 4987,3584 c -4,-4 -7,-15 -7,-25 0,-10 -9,-23 -20,-29 -11,-6 -20,-19 -20,-30 0,-10 -4,-22 -10,-25 -5,-3 -10,-13 -10,-21 0,-8 5,-14 10,-14 6,0 10,7 10,15 0,9 11,20 25,25 33,12 61,78 42,97 -7,7 -16,10 -20,7 z"
       id="path25" />
    <path
       d="m 3380,3100 c 0,-6 7,-13 15,-16 8,-4 15,-12 15,-20 0,-8 9,-14 20,-14 11,0 20,7 20,15 0,8 -7,15 -15,15 -9,0 -18,7 -21,15 -7,17 -34,21 -34,5 z"
       id="path32" />
    <path
       d="m 3690,3070 c 0,-6 8,-13 18,-17 9,-3 25,-13 35,-21 9,-8 20,-12 25,-8 4,4 -1,13 -11,20 -9,7 -17,18 -17,25 0,6 -11,11 -25,11 -14,0 -25,-5 -25,-10 z"
       id="path33" />
    <path
       d="m 3490,3061 c 0,-13 26,-32 33,-24 14,13 6,33 -13,33 -11,0 -20,-4 -20,-9 z"
       id="path34" />
    <path
       d="m 3355,2942 c 14,-15 40,-19 43,-7 1,6 -10,11 -25,13 -19,2 -25,0 -18,-6 z"
       id="path38" />
    <path
       d="m 3560,2908 c 0,-7 4,-19 9,-27 11,-17 25,3 17,24 -7,18 -26,20 -26,3 z"
       id="path39" />
    <path
       d="m 3772,2814 c 9,-10 24,-14 33,-10 23,9 9,26 -23,26 -24,0 -25,-1 -10,-16 z"
       id="path41" />
    <path
       d="m 4350,2671 c 0,-5 -9,-11 -20,-13 -12,-2 -21,-7 -21,-13 0,-5 9,-11 21,-13 28,-5 25,-19 -7,-35 l -27,-15 31,-15 c 23,-12 39,-14 62,-7 25,7 33,6 38,-6 7,-18 27,-18 43,1 7,8 20,15 30,15 10,0 20,9 23,21 4,16 11,19 27,14 18,-6 21,-3 18,12 -4,18 -40,20 -46,2 -7,-17 -32,-9 -32,11 0,24 -22,26 -40,5 -10,-12 -10,-18 0,-30 19,-23 7,-27 -26,-10 -16,8 -37,15 -47,15 -31,0 -12,25 21,28 39,4 41,15 7,30 -31,14 -55,15 -55,3 z"
       id="path42" />
    <path
       d="m 5007,2664 c -4,-5 -40,-9 -80,-11 -113,-4 -128,-7 -138,-25 -10,-19 4,-68 21,-68 5,0 10,4 10,9 0,4 17,20 38,33 33,23 45,25 102,21 72,-6 96,-22 147,-97 16,-23 33,-45 39,-51 20,-18 32,-71 25,-111 -14,-75 -112,-244 -142,-244 -26,0 -24,-19 4,-24 12,-3 62,-7 112,-11 70,-4 94,-10 110,-25 12,-11 24,-20 27,-20 4,0 7,28 6,63 0,34 5,110 10,170 6,69 6,120 0,145 -5,20 -13,57 -17,80 -10,57 -53,101 -106,109 -22,3 -46,11 -54,17 -7,6 -27,9 -43,7 -20,-2 -34,4 -46,19 -9,12 -21,18 -25,14 z"
       id="path43" />
    <path
       d="m 4386,2533 c -3,-3 -3,-10 0,-14 7,-12 34,-11 34,0 0,11 -26,22 -34,14 z"
       id="path44" />
    <path
       d="m 5006,2463 c -3,-3 -6,-21 -6,-39 0,-18 -4,-36 -10,-39 -5,-3 -10,-14 -9,-23 0,-13 3,-12 11,6 6,12 17,22 25,22 8,0 13,12 13,34 0,34 -11,52 -24,39 z"
       id="path45" />
    <path
       d="m 5085,2460 c -3,-6 0,-13 8,-16 8,-3 12,-14 10,-28 -7,-35 25,-43 38,-9 7,20 6,30 -7,44 -19,21 -39,24 -49,9 z"
       id="path46" />
    <path
       d="m 4646,2301 c -8,-13 4,-42 15,-35 12,7 12,44 0,44 -6,0 -12,-4 -15,-9 z"
       id="path47" />
    <path
       d="m 4580,2225 c 0,-8 5,-15 10,-15 6,0 10,7 10,15 0,8 -4,15 -10,15 -5,0 -10,-7 -10,-15 z"
       id="path48" />
    <path
       d="m 4700,2181 c 0,-5 -7,-17 -16,-26 -23,-23 -12,-28 24,-10 20,10 29,21 25,30 -6,16 -33,21 -33,6 z"
       id="path49" />
    <path
       d="m 5305,2000 c -7,-12 12,-40 27,-40 16,0 21,32 7,41 -18,12 -26,11 -34,-1 z"
       id="path50" />
    <path
       d="m 3256,1708 c -13,-8 -15,-13 -5,-24 17,-21 49,-18 49,5 0,23 -20,32 -44,19 z"
       id="path51" />
    <path
       d="m 3397,1699 c -21,-12 -13,-29 14,-29 12,0 19,7 19,20 0,22 -7,24 -33,9 z"
       id="path52" />
    <path
       d="m 1990,1556 c -59,-21 -50,-41 19,-43 33,-1 69,-7 80,-13 25,-13 101,-13 101,0 0,6 -10,14 -22,19 -13,5 -41,16 -63,24 -62,25 -78,26 -115,13 z"
       id="path56" />
    <path
       d="m 2135,1430 c -8,-24 1,-40 22,-40 13,0 13,-3 3,-15 -12,-14 -8,-15 26,-9 30,4 43,2 53,-10 15,-18 31,-21 31,-6 0,6 -8,14 -17,17 -10,4 -35,24 -55,45 -43,43 -54,46 -63,18 z"
       id="path58" />
    <path
       d="m 5543,1335 c -3,-9 2,-24 11,-34 9,-10 16,-23 16,-29 0,-6 14,-31 30,-54 17,-24 38,-54 48,-67 12,-19 17,-46 17,-108 0,-49 4,-83 10,-83 15,0 69,68 70,89 1,10 14,33 28,51 38,45 35,73 -13,111 -22,18 -40,37 -40,43 0,6 -9,17 -20,24 -11,7 -20,21 -20,33 v 20 l -27,-21 -27,-21 -26,30 c -27,34 -47,39 -57,16 z"
       id="path59" />
    <path
       d="m 5030,1220 c -8,-5 -12,-11 -9,-14 3,-3 14,1 25,9 21,16 8,20 -16,5 z"
       id="path60" />
    <path
       d="m 1732,1206 c 1,-10 8,-17 13,-17 15,1 12,24 -3,29 -9,3 -13,-2 -10,-12 z"
       id="path61" />
  </g>
  <g
     inkscape:groupmode="layer"
     id="layer1"
     inkscape:label="impot"
     style="display:inline"
     transform="matrix(1.0539356,0,0,1.0539356,-32.832909,-26.263029)">
    <path
       d="m 502.90205,195.77112 c -19.39004,7.05092 -39.66145,12.33912 -44.94963,12.7798 -16.30526,0 -15.86458,8.81365 0,15.42389 8.81365,3.52547 16.30525,8.81365 17.62731,11.89843 1.32204,3.08478 2.64408,1.32205 2.64408,-3.96614 0.44069,-9.25433 24.23756,-26.88163 54.64465,-40.10212 19.83072,-8.81365 22.03414,-6.16955 7.93229,8.81366 -7.4916,7.93228 -13.66116,17.18661 -13.66116,20.2714 0,3.08477 -3.08478,6.61024 -6.61024,7.93228 -3.52547,1.76273 -5.72888,4.40682 -4.40683,6.16956 1.32205,2.20341 -0.88137,7.05093 -4.84751,11.01706 -3.96614,3.96615 -5.72887,8.37297 -3.96614,10.13571 3.52546,3.52546 24.23754,-20.71209 24.23754,-28.20369 0,-2.64411 3.52547,-7.93229 7.49162,-11.01707 6.61023,-5.28818 7.05091,-5.28818 4.40681,1.76273 -1.76272,4.84751 -1.32204,7.05093 1.76274,5.28819 2.20341,-1.76273 3.52545,-5.28819 2.64409,-7.93228 -0.88136,-3.08478 1.76274,-10.1357 6.16955,-15.86458 4.84751,-5.72887 8.37298,-12.33912 8.37298,-14.10184 0,-7.05092 -23.79686,-3.08478 -59.49215,9.69501 z"
       id="path3-3"
       style="stroke-width:0.440683" />
    <path
       d="m 593.24198,234.5512 c -18.06799,8.37297 -58.1701,44.06827 -55.08533,49.35645 1.32206,1.76274 0,3.96614 -3.08477,4.84751 -2.6441,0.88137 -5.2882,5.72888 -6.16956,10.57638 -0.88136,6.16956 0.88136,5.2882 8.37296,-4.8475 5.2882,-7.05093 9.69503,-14.10185 9.69503,-15.42389 0,-5.72888 33.05119,-31.28848 50.6785,-39.22077 10.1357,-4.40682 16.74594,-9.25433 14.54253,-10.57638 -1.76274,-0.88136 -10.57638,1.32205 -18.94936,5.2882 z"
       id="path6-4"
       style="stroke-width:0.440683" />
    <path
       d="m 534.19052,238.51734 c -5.2882,8.37297 -16.30526,45.83099 -14.98322,49.79713 0.88137,2.6441 5.72888,-8.37296 10.57638,-24.23753 8.37297,-27.32233 9.69503,-33.93257 4.40684,-25.5596 z"
       id="path7-3"
       style="stroke-width:0.440683" />
    <path
       d="m 439.88443,267.6024 c -0.44068,7.4916 0.44068,7.93228 3.96614,2.64408 3.52546,-5.72886 4.40682,-5.72886 8.37297,0 11.01706,17.18663 12.77981,19.39005 16.30526,15.86459 1.76273,-1.76274 0,-5.2882 -4.40683,-7.4916 -3.96613,-2.64411 -6.61023,-6.16957 -5.72887,-7.9323 1.32205,-2.20341 -2.20342,-5.72887 -7.4916,-7.93229 -8.81366,-3.96614 -10.13571,-3.52546 -11.01707,4.84752 z"
       id="path8-6"
       style="stroke-width:0.440683" />
    <path
       d="m 496.2918,262.75488 c 0,3.08478 3.96614,13.66116 8.37298,23.35619 15.42389,32.16982 19.83072,52.44123 14.10184,68.3058 -5.28819,15.42389 -3.08478,21.59345 4.84751,13.66117 5.72887,-5.72888 8.37297,-36.13598 3.96614,-42.74622 -2.64409,-3.52547 -15.42389,-42.30554 -20.71209,-63.01762 -1.76272,-7.05093 -10.57638,-7.05093 -10.57638,0.44068 z"
       id="path9-1"
       style="stroke-width:0.440683" />
    <path
       d="m 573.41126,288.31447 c -21.15277,10.57638 -31.72914,20.27141 -13.22047,11.89844 29.08504,-12.7798 43.62757,-20.71208 37.45802,-20.71208 -3.52546,0 -14.54253,3.96614 -24.23755,8.81364 z"
       id="path11-1"
       style="stroke-width:0.440683" />
    <path
       d="m 481.3086,315.63681 c -7.05093,21.59343 -7.05093,21.15275 1.76273,16.30525 9.69501,-5.28819 10.57638,-7.93229 4.40683,-17.62732 -3.52547,-5.28818 -4.40683,-5.28818 -6.16956,1.32207 z"
       id="path14-6"
       style="stroke-width:0.440683" />
    <path
       d="m 412.56212,323.12841 c -5.2882,3.08478 -5.2882,5.28818 -0.88139,9.69501 3.96616,3.96614 5.2882,3.96614 5.2882,0 0,-9.69501 21.59345,-5.72887 28.64438,5.2882 7.93228,11.89842 4.84751,22.03413 -9.25434,33.93255 -7.05092,5.72887 -6.16956,6.16957 7.4916,8.37297 10.57639,1.76274 14.98321,4.40683 14.54253,9.69503 -0.88136,8.37296 9.69502,14.10185 13.66117,7.93228 1.32204,-2.20342 -0.44069,-9.25434 -4.40683,-14.98321 -3.96616,-6.16956 -7.05092,-15.42388 -6.61024,-21.15277 1.76272,-21.15277 -0.44068,-29.96641 -8.37297,-33.93256 -12.7798,-7.05092 -33.0512,-9.25434 -40.10211,-4.8475 z"
       id="path17-2"
       style="stroke-width:0.440683" />
    <path
       d="m 395.37548,357.06097 c 0,2.2034 1.76274,7.4916 3.96615,12.33911 2.6441,5.72888 3.96614,6.61024 3.96614,2.20341 0.44068,-5.72888 0.88136,-5.72888 4.84752,0 2.2034,3.52547 5.28819,4.84751 7.05091,3.08479 1.76273,-1.76274 -0.88136,-7.05092 -6.16955,-11.89844 -9.69502,-9.25433 -14.10185,-11.01707 -13.66117,-5.72887 z"
       id="path22-5"
       style="stroke-width:0.440683" />
    <path
       d="m 372.90067,369.84076 c 0,3.96614 10.13571,13.22048 21.15277,18.94935 12.77979,6.61024 12.33911,3.52546 -1.32205,-10.57637 -10.57638,-10.1357 -19.83072,-14.54253 -19.83072,-8.37298 z"
       id="path24-9"
       style="stroke-width:0.440683" />
  </g>
  <g
     inkscape:groupmode="layer"
     id="layer2"
     inkscape:label="import 2"
     transform="translate(-4.6146226,-8.902752)">
    <path
       d="m 348.93396,15.090788 c -22.10009,6.630022 -57.01823,34.918139 -67.18425,53.924191 -3.53602,6.630036 -9.72404,17.680078 -13.26006,25.1941 -3.97801,7.072041 -20.7741,26.962131 -37.57014,44.200191 -24.75212,25.6361 -34.91815,40.66415 -57.46024,86.19033 -14.58608,30.49811 -33.59214,72.0463 -41.99016,92.82035 -7.95602,20.7741 -25.63611,53.48222 -39.338137,72.93028 -32.70812,47.29419 -41.10615,68.06829 -52.59821,129.50652 -4.86203,28.28809 -10.60804,53.48219 -11.93406,56.1342 -1.32601,2.21004 -11.93404,16.35406 -22.9840804,30.94015 11.0688404,2.32289 6.7530304,3.8926 22.5421004,-1.76804 8.68777,-3.11471 7.95602,-20.77407 11.93404,-26.96207 5.74603,-9.28205 11.93406,-34.47616 20.33209,-81.77035 3.53601,-22.10006 16.35404,-59.6702 20.33207,-59.6702 2.65201,0 3.97801,-1.32602 3.53601,-3.53602 -1.32602,-4.42004 9.72404,-24.31009 15.91206,-28.28813 2.652017,-1.76801 4.862017,-5.746 4.862017,-8.84004 0,-3.09399 3.97802,-7.51399 9.28201,-10.16603 4.86204,-2.21 8.39803,-7.07201 7.07204,-10.60803 -0.88399,-3.09403 0,-7.07205 2.21,-8.84004 2.21003,-1.326 8.84005,-14.14406 14.14408,-28.2881 5.74602,-13.70207 12.81804,-25.19412 15.47004,-25.19412 3.53602,0 4.86204,-4.862 3.53602,-13.70206 -1.76799,-12.37601 -0.88398,-13.26004 7.51404,-10.60804 10.16603,3.09404 12.37606,-1.76797 4.42001,-9.72403 -7.51403,-7.51401 5.30404,-24.3101 13.70206,-18.56405 5.30401,3.536 5.30401,5.30399 1.326,7.07202 -3.09401,0.88399 -5.74605,3.97802 -5.74605,6.63001 0,3.09403 2.21005,3.09403 5.74605,-0.44199 3.53602,-2.65199 7.51403,-3.09403 9.28204,-1.326 1.76802,1.76799 0.884,-2.20999 -2.21001,-9.28205 -3.09402,-6.63 -7.07203,-11.93405 -9.28204,-11.93405 -1.768,0 -3.53604,-2.21 -3.53604,-4.42 0,-2.65203 2.65204,-4.42002 5.74605,-4.42002 3.09402,0 8.39803,-9.72403 11.49204,-22.10009 3.53602,-14.14404 11.49206,-28.2881 23.42609,-40.66413 13.70205,-15.02809 16.79608,-17.2381 15.47007,-8.84005 -1.32602,5.74602 0.442,11.05003 4.42001,13.70207 3.97802,1.76798 5.74603,6.18799 3.97802,8.84 -1.76799,2.65201 -5.74603,3.53601 -8.39803,2.21 -3.094,-1.76799 -3.97801,-1.32598 -1.76802,0.44201 1.76802,2.21001 -1.32598,8.39805 -6.63002,14.14407 l -9.28203,10.16603 h 9.28203 c 5.30404,0 9.72405,-1.76801 9.72405,-4.41999 0,-2.65204 3.97802,-2.65204 11.49203,0 6.18803,2.65198 11.93406,4.41999 13.26004,4.41999 3.97803,0 1.32602,-25.19409 -4.42001,-41.99017 -3.97802,-11.05003 -4.86201,-19.44807 -2.21,-22.10009 2.21,-2.21 3.97804,-7.956 3.97804,-13.26004 0,-5.30403 1.76797,-11.05005 3.97799,-13.70206 2.20999,-2.20999 7.07202,-14.14406 11.05006,-26.07811 7.072,-21.216074 32.70812,-59.228212 26.96209,-39.780149 -2.652,7.956026 -2.21,7.956026 3.094,-0.884018 11.93404,-19.448052 56.13423,-44.200137 60.11227,-33.150105 0.88399,3.094018 4.42,5.304018 7.956,5.304018 3.53603,0 6.63003,3.536027 6.63003,7.514052 1.326,19.448038 3.09402,26.962071 6.18803,32.70811 3.09403,4.86201 2.652,5.304003 -2.65199,0.883997 -5.74604,-4.420028 -6.18803,-1.768005 -4.86202,21.658058 1.32598,22.100107 0.44198,26.520137 -4.42005,22.984137 -3.09399,-2.65201 -11.49204,-4.86202 -18.56405,-5.30405 -7.07206,-0.44199 -15.47009,-3.09402 -18.56409,-5.74604 -3.53601,-2.65198 -6.18801,-3.97797 -6.18801,-2.65198 0,1.32599 6.18801,7.07204 13.70204,12.37604 11.05006,7.51404 14.58608,8.39803 17.23804,3.97801 3.09405,-4.86203 4.86204,-4.86203 10.60807,-0.44199 8.39803,7.07203 9.28204,15.47006 1.32603,12.37605 -3.53604,-1.32599 -6.18805,0.442 -6.18805,3.97802 0,3.536 1.768,6.18803 3.97801,6.18803 1.76801,0 3.53601,2.20998 3.53601,4.86201 0,2.20998 -1.768,3.09401 -4.42,1.76801 -6.63001,-4.42004 -5.304,-0.884 6.63004,15.47006 l 0.88398,-2.65202 c -3.09402,-5.30403 1.32602,-28.28813 5.30405,-28.28813 1.76799,0 3.09398,-8.84002 3.09398,-19.44805 -0.44199,-10.60805 0.88401,-18.564099 3.09402,-17.238094 1.76801,0.884024 3.09401,-11.492029 3.09401,-28.288099 0,-23.426064 -2.20999,-33.592114 -10.16604,-45.968174 L 369.26603,8.902752 Z"
       id="path1-5"
       style="display:inline;stroke-width:0.442"
       sodipodi:nodetypes="ccccccccccsccsccsccccsccsccscscsssscccsccccsscscsscscccscccccscsccccssscccsccsccc" />
  </g>
  <path
     id="text2"
     style="font-style:normal;font-variant:normal;font-weight:normal;font-stretch:normal;font-size:85.3333px;line-height:0;font-family:'Eras Demi ITC';-inkscape-font-specification:'Eras Demi ITC';white-space:pre;shape-inside:url(#rect2);display:inline;fill:#000000;fill-opacity:1;stroke:#000000;stroke-width:21.3404"
     d="m 1086.7348,58.42169 c -1.3254,0 -2.8719,0.442055 -4.6391,1.325682 -0.4416,0.294562 -2.2825,1.767128 -5.5225,4.417974 -3.2399,2.50357 -7.5113,6.701036 -12.8129,12.591793 -9.1307,-1.472688 -18.7025,-2.577131 -28.7168,-3.313472 -10.0144,-0.736347 -20.5442,-1.104497 -31.5894,-1.104497 -13.5488,0 -28.05436,1.030522 -43.51759,3.092286 -15.31595,1.914499 -31.07385,5.081443 -47.27343,9.499513 -16.0523,4.418073 -32.25226,10.088121 -48.59912,17.009761 -16.34687,6.92165 -32.25258,15.24119 -47.71581,24.96094 -15.316,9.71975 -29.9694,21.05986 -43.95998,34.01953 -13.99053,12.8124 -26.72933,27.31799 -38.21629,43.51758 -12.07609,17.23047 -21.20581,34.24063 -27.39113,51.0293 -6.03799,16.64139 -9.0571,32.76741 -9.0571,48.37793 0,15.02143 2.79734,28.64435 8.39354,40.86767 5.5962,12.07606 13.40267,22.38418 23.41698,30.92578 10.01432,8.5416 21.94286,15.0958 35.78616,19.66114 13.99052,4.71261 29.30631,7.06787 45.94774,7.06787 16.0523,0 32.76679,-2.87126 50.14451,-8.61475 17.52501,-5.89076 34.53517,-14.87414 51.02931,-26.95019 16.64137,-12.22333 32.25141,-27.61306 46.83106,-46.16895 14.72688,-18.55589 27.3932,-40.57227 37.99655,-66.0498 0.8836,0.14726 1.8403,0.22119 2.8711,0.22119 h 5.0801 c 8.0998,0 16.9368,-0.36815 26.5093,-1.1045 9.5725,-0.73634 19.44,-1.98863 29.6015,-3.75585 15.4633,2.06176 29.5268,5.22871 42.1919,9.49951 12.6651,4.2708 23.4893,9.42486 32.4727,15.46289 9.1307,6.03803 16.1269,12.88644 20.9868,20.54443 5.0072,7.65799 7.5103,15.97753 7.5103,24.96094 0,8.0998 -2.2089,16.12657 -6.627,24.0791 -4.4181,7.80526 -11.2665,14.87398 -20.5444,21.20654 -9.1307,6.1853 -20.839,11.19298 -35.1241,15.02197 -14.285,3.829 -31.3677,5.74366 -51.249,5.74366 -14.5796,0 -29.0852,-1.47259 -43.5176,-4.41797 -14.4323,-2.94538 -28.4973,-7.29069 -42.19332,-13.03418 -1.17814,-0.44179 -2.28259,-0.66211 -3.31345,-0.66211 -2.06178,0 -3.97643,0.81022 -5.74364,2.43018 -1.76727,1.47268 -2.65138,3.4598 -2.65138,5.96338 0,3.68172 1.76827,6.25875 5.3027,7.73144 15.90507,6.62711 31.58899,11.41448 47.05229,14.35987 15.6105,2.94537 30.706,4.41796 45.2856,4.41796 8.9834,0 18.4813,-0.66384 28.4956,-1.98925 10.0143,-1.17816 19.8079,-3.16527 29.3804,-5.96338 9.5725,-2.65084 18.7037,-6.11202 27.3926,-10.38281 8.8361,-4.27081 16.5672,-9.49879 23.1943,-15.68409 6.6271,-6.1853 11.8551,-13.32794 15.6841,-21.42773 3.9762,-8.0998 5.9649,-17.30348 5.9649,-27.61231 0,-2.79811 -0.2943,-6.18536 -0.8834,-10.16162 -0.4416,-4.12353 -1.6202,-8.54276 -3.5347,-13.25537 -1.9144,-4.71261 -4.6393,-9.6449 -8.1738,-14.79932 -3.5344,-5.15441 -8.3943,-10.16209 -14.5795,-15.02197 -6.0381,-5.00714 -13.5489,-9.79306 -22.5323,-14.3584 -8.8361,-4.56534 -19.5863,-8.61642 -32.2514,-12.15088 9.1307,-3.23991 17.7458,-7.21561 25.8457,-11.92822 8.247,-4.85988 15.3897,-10.52993 21.4277,-17.00976 6.1853,-6.47984 11.0451,-13.99063 14.5796,-22.53223 3.5344,-8.5416 5.3013,-18.18736 5.3013,-28.93799 0,-19.58678 -7.1427,-36.00702 -21.4278,-49.26123 -14.2851,-13.40148 -34.9028,-23.416838 -61.853,-30.043941 3.5344,-3.387187 6.3332,-6.038144 8.395,-7.952638 2.0618,-2.06177 3.0923,-4.564873 3.0923,-7.510254 0,-2.209035 -0.8102,-3.901928 -2.4302,-5.080081 -1.6199,-1.178152 -3.4607,-1.768066 -5.5225,-1.768066 z m 427.0064,13.475097 c -6.1853,0 -11.7075,2.504577 -16.5674,7.511722 -4.8598,5.007146 -9.2037,11.781641 -13.0327,20.323241 -3.6817,8.5416 -6.9226,18.48158 -9.7207,29.82129 -2.6508,11.33971 -4.8597,23.34219 -6.627,36.00732 -1.7672,12.66513 -3.0919,25.62421 -3.9756,38.87842 -0.7363,13.25421 -1.1044,26.0669 -1.1044,38.4375 0,8.5416 0.2206,18.3352 0.6621,29.38037 0.589,11.04518 1.6196,22.4592 3.0923,34.24072 0.6371,5.03335 1.4363,10.02618 2.2939,15.0044 -0.3213,0.15677 -0.6626,0.25474 -0.9683,0.45849 -1.3253,0.73634 -2.3559,1.84078 -3.0922,3.31348 -4.5654,9.13067 -9.2049,17.45168 -13.9175,24.9624 -4.7126,7.36344 -9.4246,13.69587 -14.1372,18.99756 -4.5654,5.30168 -9.0571,9.42522 -13.4751,12.3706 -4.4181,2.94538 -8.6894,4.41797 -12.813,4.41797 -2.5036,0 -5.1545,-0.44205 -7.9526,-1.32568 -2.6509,-0.88362 -5.2279,-2.65043 -7.7315,-5.30127 -2.3563,-2.65084 -4.3434,-6.33232 -5.9633,-11.04492 -1.4727,-4.85988 -2.209,-11.19231 -2.209,-18.99756 0,-5.7435 0.1463,-12.00346 0.4411,-18.77784 0.4416,-6.92164 0.8839,-13.40044 1.3256,-19.43847 0.5891,-6.1853 1.0312,-11.48721 1.3257,-15.90528 0.4417,-4.41807 0.6622,-7.06902 0.6622,-7.95263 0,-2.20904 -0.7363,-4.1237 -2.209,-5.74365 -1.4727,-1.76723 -3.3134,-2.65137 -5.5225,-2.65137 -2.5036,0 -4.5646,0.81021 -6.1846,2.43017 -1.4726,1.47269 -2.3568,3.23951 -2.6514,5.30127 -1.5506,12.31966 -2.5072,24.67292 -3.1508,37.04297 -0.4862,0.60579 -0.9154,1.28432 -1.2671,2.05811 -1.3254,2.79811 -2.9458,6.11143 -4.8603,9.94043 -1.9145,3.82899 -4.1234,7.80469 -6.627,11.92822 -2.5035,4.12353 -5.3024,8.24707 -8.395,12.37061 -2.9454,3.97626 -6.1109,7.58527 -9.4981,10.82519 -3.2399,3.09265 -6.6272,5.59576 -10.1616,7.51025 -3.3872,1.9145 -6.8483,2.8711 -10.3828,2.8711 -5.4489,0 -9.7189,-1.84074 -12.8115,-5.52246 -3.0927,-3.68173 -5.4494,-8.02557 -7.0694,-13.03272 -1.4726,-5.00714 -2.4307,-10.01483 -2.8725,-15.02197 -0.4417,-5.15442 -0.7361,-9.13011 -0.8833,-11.92822 -0.1474,-2.06177 -1.03,-3.9025 -2.6499,-5.52246 -1.4727,-1.61996 -3.241,-2.43018 -5.3027,-2.43018 -2.2091,0 -4.1238,0.73629 -5.7437,2.20899 -1.62,1.32541 -2.5766,3.01831 -2.8711,5.08007 -1.0309,7.65799 -2.8716,14.2861 -5.5225,19.88232 -2.5035,5.59623 -5.3748,10.2343 -8.6147,13.91602 -3.0927,3.68173 -6.4075,6.4066 -9.9419,8.17383 -3.3872,1.76723 -6.4063,2.65137 -9.0571,2.65137 -3.6817,0 -6.7733,-0.7363 -9.2769,-2.20898 -2.5035,-1.4727 -4.4921,-3.38736 -5.9649,-5.74366 -1.4726,-2.3563 -2.5031,-4.93333 -3.0922,-7.73144 -0.5891,-2.94538 -0.8848,-5.8181 -0.8848,-8.61621 0,-8.98341 1.4002,-16.7145 4.1982,-23.19434 2.9454,-6.62711 6.553,-12.07686 10.8238,-16.34766 4.2708,-4.41807 8.9843,-7.65747 14.1387,-9.71923 5.1544,-2.06177 10.0142,-3.09229 14.5796,-3.09229 3.0926,0 5.816,0.36815 8.1723,1.10449 2.5036,0.58908 4.64,1.32537 6.4073,2.20899 1.7672,0.88361 3.1658,1.76775 4.1967,2.65136 1.0309,0.73635 1.6933,1.25088 1.9878,1.54542 1.62,1.61995 3.6085,2.43017 5.9649,2.43017 2.209,0 4.1236,-0.81022 5.7436,-2.43017 1.6199,-1.76723 2.4302,-3.75581 2.4302,-5.96485 0,-2.06177 -0.8103,-4.04888 -2.4302,-5.96338 -0.1474,-0.14727 -0.9575,-0.80964 -2.4302,-1.98779 -1.4727,-1.32542 -3.6076,-2.72555 -6.4057,-4.19824 -2.6509,-1.47269 -5.8918,-2.79744 -9.7207,-3.97559 -3.829,-1.32542 -8.0265,-1.98779 -12.5918,-1.98779 -6.7744,0 -13.8431,1.47259 -21.2066,4.41797 -7.2162,2.94538 -13.8428,7.36314 -19.8809,13.2539 -6.0379,5.89076 -11.0457,13.25371 -15.0219,22.08984 -3.829,8.68888 -5.7437,18.7767 -5.7437,30.26368 0,5.74349 0.8102,11.04539 2.4302,15.90527 1.7672,4.85988 4.1979,9.13126 7.2905,12.81299 3.0927,3.53445 6.8481,6.33179 11.2661,8.39355 4.4181,1.9145 9.3519,2.87256 14.8008,2.87256 6.9217,0 13.8426,-2.43065 20.7642,-7.29052 6.9216,-5.00715 12.8859,-11.70772 17.8931,-20.10206 2.6508,8.24707 6.8483,15.09548 12.5918,20.54444 5.8907,5.44895 13.1073,8.17382 21.6489,8.17382 6.038,0 11.7805,-1.40012 17.2295,-4.19824 5.4489,-2.94538 10.5305,-6.62685 15.2432,-11.04492 4.7126,-4.41807 8.9839,-9.27791 12.8129,-14.57959 2.3946,-3.31558 4.2254,-6.38895 6.2168,-9.53174 0.3855,4.2799 0.9678,8.45297 1.9556,12.4043 1.7672,6.33257 4.3442,11.85477 7.7314,16.56738 3.5345,4.71261 7.8059,8.46801 12.8131,11.26612 5.0071,2.79811 10.8235,4.19678 17.4506,4.19678 5.1544,0 10.2361,-1.25229 15.2432,-3.75587 5.0071,-2.50357 9.7931,-5.74297 14.3584,-9.71923 4.5653,-4.12354 8.8367,-8.68915 12.813,-13.69629 4.1235,-5.15442 7.8789,-10.30848 11.2661,-15.46289 3.3872,-5.15442 6.4063,-10.1621 9.0571,-15.02197 0.2677,-0.49089 0.4109,-0.77365 0.6695,-1.24952 2.675,9.95734 5.9243,19.07777 9.933,27.09522 4.4181,8.83614 9.794,15.97878 16.1265,21.42773 6.3326,5.44896 13.9173,8.17383 22.7534,8.17383 5.7435,0 11.1179,-1.25229 16.125,-3.75586 5.1544,-2.3563 9.9418,-5.44786 14.3599,-9.27685 4.5653,-3.97627 8.7613,-8.3955 12.5903,-13.25538 3.829,-5.00714 7.2902,-10.01336 10.3829,-15.0205 0.7903,-1.27962 1.3465,-2.41867 2.0888,-3.66944 0.3563,1.51754 0.5571,3.0352 1.0034,4.55274 2.2091,7.51072 5.5963,14.28521 10.1617,20.32324 4.5653,5.89076 10.3832,10.67667 17.4521,14.3584 7.0689,3.82899 15.462,5.74365 25.1821,5.74365 15.1687,-0.29451 28.7177,-6.11097 40.6465,-17.45068 5.9299,-5.56835 11.6234,-12.50468 17.0916,-20.73633 1.0879,9.25712 4.0383,16.86853 8.9752,22.72412 6.3324,7.51072 15.0955,11.26611 26.2879,11.26611 6.7745,0 12.9589,-2.0625 18.5554,-6.18603 5.7433,-4.12354 10.5308,-9.57182 14.3596,-16.34619 -0.44,6.47983 -0.8838,13.47463 -1.3254,20.98535 -0.2969,7.65798 -0.589,15.02239 -0.8832,22.09131 -5.3017,6.1853 -10.5313,13.03224 -15.6856,20.54297 -5.1549,7.65798 -10.0144,15.68476 -14.5797,24.0791 -4.5653,8.39433 -8.8353,17.00956 -12.8115,25.8457 -3.8289,8.83614 -7.1425,17.52529 -9.9407,26.06689 -2.7982,8.68888 -5.0069,17.08234 -6.6266,25.18213 -1.4728,8.0998 -2.2092,15.68451 -2.2092,22.75342 0,12.95967 2.7972,23.04749 8.3936,30.26368 5.596,7.21618 13.6227,10.82519 24.0793,10.82519 6.3323,0 11.8546,-1.62044 16.5672,-4.86035 4.7127,-3.09265 8.8364,-7.43796 12.3705,-13.03418 3.5346,-5.44895 6.406,-11.92776 8.6147,-19.43848 2.3566,-7.51072 4.1973,-15.61142 5.5228,-24.30029 1.3254,-8.54161 2.2834,-17.52498 2.8724,-26.9502 0.589,-9.42522 0.8833,-18.85066 0.8833,-28.27588 0,-11.48698 -0.2916,-22.38502 -0.8833,-32.69384 -0.589,-10.16156 -0.589,-20.32184 0,-30.4834 6.0381,-6.77438 12.3704,-13.54887 18.9976,-20.32325 6.6271,-6.6271 13.18,-13.47552 19.6597,-20.54443 6.4797,-7.21618 12.6657,-14.80089 18.5564,-22.75342 5.8908,-7.95252 11.1187,-16.71413 15.684,-26.28662 0.4401,-1.03088 0.6622,-2.13679 0.6622,-3.31494 0,-2.20903 -0.8085,-4.19615 -2.4287,-5.96338 -1.4728,-1.76723 -3.4615,-2.65136 -5.9649,-2.65136 -1.6197,0 -3.0925,0.44205 -4.4179,1.32568 -1.3254,0.73634 -2.3561,1.91471 -3.0925,3.53467 -3.3867,7.21618 -7.2904,14.06459 -11.7083,20.54443 -4.271,6.33257 -8.9105,12.44323 -13.9174,18.33398 -5.0069,5.89077 -10.1612,11.56082 -15.4629,17.00977 l -15.684,15.68408 c 0.589,-11.92879 1.3254,-23.12105 2.2087,-33.57714 0.8837,-10.60337 1.6938,-19.88098 2.4303,-27.8335 0.8837,-7.95253 1.6201,-14.28495 2.2092,-18.99756 0.589,-4.85988 0.8832,-7.51083 0.8832,-7.95264 0,-2.3563 -0.8101,-4.34488 -2.4303,-5.96484 -1.6196,-1.61996 -3.6072,-2.43018 -5.9633,-2.43018 -2.0618,0 -3.83,0.66237 -5.3028,1.9878 -1.4728,1.17815 -2.3555,2.72466 -2.6497,4.63916 -4.7127,23.71031 -10.4566,41.8249 -17.2311,54.34277 -6.7745,12.37059 -14.3591,18.55518 -22.7532,18.55518 -6.6272,0 -11.413,-2.28135 -14.3586,-6.84668 -2.9456,-4.56534 -4.4179,-10.89924 -4.4179,-18.99903 0,-8.09979 2.6922,-15.58638 4.1645,-22.36075 1.6202,-6.77437 3.313,-12.59081 5.08,-17.45069 1.915,-4.85987 3.6089,-8.54134 5.0817,-11.04492 1.4091,-2.53708 2.7993,-6.68799 3.5347,-8.17383 0.9799,-1.9798 -0.8101,-4.12369 -2.4303,-5.74365 -1.4723,-1.76723 -3.461,-2.65136 -5.9644,-2.65136 -2.9457,0 -7.1844,1.302 -8.804,3.80557 0,-0.14727 -0.8828,1.32532 -2.6498,4.41797 -1.7676,2.94538 -3.7563,7.29069 -5.965,13.03418 -1.477,4.00888 -2.8719,9.33956 -4.2731,14.55762 -1.0577,0.73897 -1.9468,1.73143 -2.575,3.11426 -3.0931,6.92164 -6.554,13.84251 -10.3829,20.76416 -3.8289,6.92164 -8.1731,13.18161 -13.0326,18.77783 -4.8601,5.59622 -10.236,10.16037 -16.1267,13.69483 -5.8907,3.38718 -12.4436,5.08153 -19.6597,5.08153 -7.0688,0 -13.0329,-1.25228 -17.8927,-3.75585 -4.8599,-2.65085 -8.8371,-6.11055 -11.9298,-10.38135 5.7435,-2.79811 11.1193,-6.1129 16.1265,-9.9419 5.007,-3.82899 9.277,-8.02499 12.8111,-12.59033 3.6821,-4.56534 6.5545,-9.49909 8.6163,-14.80078 2.0619,-5.30168 3.0925,-10.97173 3.0925,-17.00977 0,-4.7126 -0.8101,-8.91007 -2.4303,-12.59179 -1.6202,-3.68173 -3.7546,-6.77475 -6.4055,-9.27832 -2.6508,-2.65084 -5.6701,-4.63796 -9.0574,-5.96338 -3.2399,-1.47269 -6.553,-2.20899 -9.9402,-2.20899 -5.7435,0 -11.0454,1.32475 -15.9053,3.97559 -4.7125,2.65084 -8.8361,6.33231 -12.3706,11.04492 -3.3871,4.71261 -6.0381,10.23482 -7.9526,16.56738 -0.5352,1.91788 -0.8309,3.99604 -1.2041,6.02198 -0.7414,0.65083 -1.4027,1.40223 -1.8882,2.37305 -1.9145,3.97626 -4.6393,9.27816 -8.1738,15.90527 -3.3872,6.47983 -7.3629,12.88618 -11.9282,19.21875 -4.5654,6.33257 -9.573,11.85477 -15.022,16.56738 -5.449,4.56534 -11.119,6.84814 -17.0098,6.84814 -8.6888,0 -16.1257,-5.3019 -22.311,-15.90527 -6.1853,-10.75063 -11.1191,-25.47799 -14.8008,-44.18115 8.2471,-15.02144 15.9796,-30.41116 23.1958,-46.16895 7.2162,-15.90505 13.4747,-31.8093 18.7764,-47.71435 5.3017,-15.90505 9.4991,-31.66292 12.5918,-47.27344 3.0926,-15.75778 4.6392,-30.99966 4.6392,-45.72656 0,-11.92879 -0.7378,-22.01807 -2.2105,-30.26514 -1.4727,-8.24706 -3.5338,-14.94763 -6.1845,-20.102046 -2.6509,-5.154415 -5.9642,-8.835889 -9.9405,-11.044923 -3.829,-2.356305 -8.1743,-3.53467 -13.0342,-3.53467 z m -0.6621,16.568851 c 4.7126,0 8.468,3.755392 11.2661,11.266112 2.7981,7.51072 4.1968,19.9538 4.1968,37.33154 0,12.3706 -1.3248,25.40506 -3.9756,39.10107 -2.5036,13.54875 -5.8908,27.24412 -10.1616,41.08741 -4.2708,13.69601 -9.2046,27.31893 -14.8008,40.86767 -5.5962,13.40148 -11.4866,26.06633 -17.6719,37.99512 -0.7363,-7.95253 -1.3262,-16.27353 -1.768,-24.9624 -0.4417,-8.68887 -0.6622,-17.74617 -0.6622,-27.17139 0,-12.37059 0.368,-24.81514 1.1046,-37.33301 0.8835,-12.51786 1.988,-24.52034 3.3134,-36.00732 1.4727,-11.48698 3.2395,-22.23717 5.3013,-32.25146 2.0617,-10.01429 4.3445,-18.70345 6.8481,-26.0669 2.5036,-7.36345 5.1546,-13.17988 7.9527,-17.45069 2.9454,-4.270788 5.9645,-6.405752 9.0571,-6.405752 z m -509.625,0.662104 c 8.6889,0 17.0099,0.22029 24.9624,0.66212 7.9525,0.44179 15.6836,1.17809 23.1943,2.208978 -7.9525,10.8979 -14.9473,22.09163 -20.9853,33.57861 -6.038,11.33971 -11.5602,22.90012 -16.5674,34.68164 -5.0071,11.78152 -9.5727,23.71008 -13.6963,35.78614 -4.1235,12.07605 -8.1731,24.15245 -12.14941,36.22851 -7.21618,1.03088 -12.51809,2.35563 -15.90528,3.97559 -3.38715,1.47269 -5.08152,3.97579 -5.08152,7.51025 0,3.38719 1.40013,5.89176 4.19825,7.51172 2.79808,1.47269 5.5215,2.20898 8.17235,2.20898 -10.01431,22.8267 -21.72257,42.56027 -35.12402,59.20166 -13.40146,16.49413 -27.5389,30.19097 -42.41311,41.08887 -14.87416,10.75064 -30.11605,18.77596 -45.72656,24.07764 -15.61051,5.15441 -30.63206,7.73144 -45.06443,7.73144 -14.43237,0 -27.61322,-1.84073 -39.54198,-5.52246 -11.9288,-3.82899 -22.16446,-9.20336 -30.70607,-16.125 -8.5416,-7.06891 -15.16824,-15.68414 -19.88086,-25.8457 -4.56534,-10.16156 -6.84814,-21.64951 -6.84814,-34.46192 0,-13.69601 2.79881,-28.12768 8.39501,-43.29638 5.5962,-15.16871 13.91578,-30.55843 24.96095,-46.16895 10.89789,-15.31597 22.97429,-29.08526 36.22852,-41.30859 13.25418,-12.22333 27.17133,-22.90106 41.75098,-32.03174 14.72688,-9.27794 29.82239,-17.15688 45.28562,-23.63672 15.61051,-6.6271 31.07417,-12.00293 46.39017,-16.12646 15.31595,-4.12353 30.26359,-7.14263 44.84324,-9.05713 14.5796,-1.914498 28.34899,-2.871098 41.30859,-2.871098 z m 66.9346,5.964848 c 25.6248,5.15441 45.2844,13.10581 58.9804,23.85644 13.696,10.75064 20.5445,24.37355 20.5445,40.86768 0,8.09979 -1.3263,15.31636 -3.9771,21.64892 -2.5036,6.33257 -5.9632,12.07654 -10.3813,17.23096 -4.2708,5.00715 -9.3525,9.42491 -15.2432,13.25391 -5.8908,3.68172 -12.1493,6.92113 -18.7764,9.71924 -6.4798,2.65084 -13.1804,4.93364 -20.102,6.84814 -6.7744,1.9145 -13.4025,3.46101 -19.8823,4.63916 -7.8053,-0.88361 -15.0943,-1.47353 -21.8687,-1.76807 -6.7744,-0.4418 -13.0328,-0.6621 -18.7764,-0.6621 h -6.4072 c -2.5035,0 -5.2284,0.0739 -8.1738,0.22119 2.7981,-11.33972 6.3332,-23.04797 10.604,-35.12403 4.4181,-12.22332 9.3518,-24.2258 14.8008,-36.00732 5.4489,-11.92879 11.4132,-23.41527 17.893,-34.46045 6.4799,-11.04518 13.4022,-21.133 20.7657,-30.26367 z m 315.0073,105.3706 c -2.7981,0 -5.4476,0.51602 -7.9512,1.54688 -2.3563,1.03088 -4.4927,2.50347 -6.4072,4.41797 -1.7673,1.76723 -3.1659,3.90219 -4.1968,6.40576 -1.0309,2.3563 -1.5469,4.93333 -1.5469,7.73144 0,5.59623 1.9147,10.38214 5.7437,14.3584 3.9763,3.829 8.7622,5.74365 14.3584,5.74365 5.5962,0 10.3097,-1.91465 14.1387,-5.74365 3.9763,-3.97626 5.9648,-8.76217 5.9648,-14.3584 0,-2.79811 -0.5158,-5.37514 -1.5469,-7.73144 -1.0308,-2.50357 -2.5034,-4.63853 -4.4179,-6.40576 -1.7673,-1.9145 -3.9022,-3.38709 -6.4058,-4.41797 -2.3563,-1.03088 -4.9348,-1.54688 -7.7329,-1.54688 z m 0,12.37061 c 2.0617,0 3.83,0.81022 5.3027,2.43017 1.62,1.47269 2.4302,3.23951 2.4302,5.30127 0,2.06177 -0.8102,3.82858 -2.4302,5.30127 -1.4727,1.47269 -3.241,2.20899 -5.3027,2.20899 -2.0617,0 -3.8286,-0.7363 -5.3013,-2.20899 -1.4726,-1.47269 -2.2089,-3.2395 -2.2089,-5.30127 0,-2.06176 0.7363,-3.82858 2.2089,-5.30127 1.4727,-1.61995 3.2396,-2.43017 5.3013,-2.43017 z m 229.0781,89.02441 c 2.9454,0 5.5225,1.17837 7.7317,3.53467 2.2087,2.20904 3.3131,5.52236 3.3131,9.94043 0,3.97626 -0.7359,7.95196 -2.2087,11.92822 -1.4728,3.829 -3.5352,7.51047 -6.1862,11.04492 -2.6508,3.53446 -5.8902,6.77533 -9.7192,9.72071 -3.6817,2.94538 -7.8053,5.37456 -12.3706,7.28906 -0.7364,-2.65084 -1.3988,-5.44818 -1.9878,-8.39355 -0.4417,-2.94538 -0.6636,-5.74418 -0.6636,-8.39502 0,-4.2708 0.3679,-8.54073 1.1045,-12.81153 0.8836,-4.41806 2.2098,-8.39523 3.9771,-11.92969 1.7672,-3.53445 4.05,-6.40571 6.8481,-8.61474 2.7981,-2.20904 6.1853,-3.31348 10.1616,-3.31348 z m 140.7156,142.04151 c 0.1485,7.36345 0.2916,14.28432 0.4401,20.76416 0.2969,6.47983 0.44,12.88618 0.44,19.21875 0,15.61051 -0.6622,29.67403 -1.9876,42.19189 -1.3254,12.66513 -3.3141,23.41679 -5.9649,32.25293 -2.5035,8.83614 -5.6702,15.61064 -9.4996,20.32324 -3.6815,4.85988 -7.9515,7.28906 -12.8115,7.28906 -5.4486,0 -9.4259,-2.20888 -11.9294,-6.62695 -2.5034,-4.2708 -3.7546,-10.23508 -3.7546,-17.89306 0,-7.51072 1.1043,-16.05203 3.3135,-25.62452 2.2093,-9.57248 5.3023,-19.58638 9.2785,-30.04248 3.9763,-10.45609 8.6879,-20.98598 14.137,-31.58935 5.5965,-10.60337 11.7082,-20.69119 18.3354,-30.26367 z"
     inkscape:label="Bailey"
     sodipodi:nodetypes="scccssccsccccscscsccccssscsccsccssscscsscscccscscsscccccsscccsssssccscsccccsccsscccscccscsscccsscccssccccscccccssscsccsscscsscsccccscscscccscccscsscccsssccsscssscccscscccccsscccccscccscsccccssccccscscscccscccccscscccssscccscscccccsccsccscsssccsccccccscscccscssscssssccccssccsscsscccssccscccccscccsscsccssscsscccccccsscccscssscscssscccsssscssscsscscscccscsssccscccscssscccc" />
  <path
     id="text1"
     style="font-style:normal;font-variant:normal;font-weight:normal;font-stretch:normal;font-size:85.3333px;font-family:'Lucida Sans Unicode';-inkscape-font-specification:'Lucida Sans Unicode';white-space:pre;shape-inside:url(#rect1);display:inline;fill:none;stroke:#000000;stroke-width:8.81068"
     d="m 1015.9995,469.35058 c -1.9026,0 -3.4167,0.38914 -4.5411,1.16749 -1.1242,0.77834 -1.6859,1.77312 -1.6859,2.98388 0,1.12429 0.5617,2.07517 1.6859,2.85351 1.1244,0.69188 2.6385,1.03858 4.5411,1.03858 1.9892,0 3.5017,-0.3467 4.5395,-1.03858 1.0379,-0.77834 1.5571,-1.72922 1.5571,-2.85351 0,-1.21076 -0.5192,-2.20554 -1.5571,-2.98388 -1.0378,-0.77835 -2.5503,-1.16749 -4.5395,-1.16749 z m -467.22215,1.42676 v 3.11281 h 23.73924 v 61.48974 h -23.73924 v 2.98388 h 63.56542 c 8.90778,0 16.73429,-1.20982 23.47999,-3.63135 6.74569,-2.50802 11.97847,-6.2706 15.69727,-11.28661 3.80526,-5.01604 5.70849,-11.28602 5.70849,-18.81006 0,-7.61054 -1.90323,-13.92441 -5.70849,-18.94045 -3.7188,-5.01601 -8.95158,-8.7347 -15.69727,-11.15624 -6.7457,-2.50802 -14.57221,-3.76172 -23.47999,-3.76172 z m 26.98242,3.11281 h 36.583 c 8.47536,0 15.82643,1.12495 22.05323,3.37352 6.2268,2.24857 11.02655,5.66443 14.39942,10.24805 3.45933,4.49712 5.18992,10.20535 5.18992,17.12403 0,6.83217 -1.73059,12.5404 -5.18992,17.12401 -3.37287,4.58362 -8.17262,7.99948 -14.39942,10.24805 -6.2268,2.24857 -13.57787,3.37208 -22.05323,3.37208 h -36.583 z m 718.68303,6.4863 c -4.151,0.17293 -7.7835,1.51447 -10.8969,4.02247 -3.0268,2.50802 -5.059,6.05409 -6.0967,10.63769 -3.1135,-1.4702 -6.7019,-2.55129 -10.7667,-3.24315 -4.0645,-0.69186 -8.3889,-1.03858 -12.9726,-1.03858 -5.7944,0 -11.1996,0.60564 -16.2157,1.81642 -4.9295,1.12427 -8.9087,2.93973 -11.9357,5.44775 -3.0268,2.42154 -4.5395,5.53603 -4.5395,9.34131 0,3.1134 1.0811,5.87973 3.2432,8.30126 -2.1621,0.86483 -4.2819,2.20631 -6.3574,4.02246 -1.9892,1.81616 -2.9838,4.10704 -2.9838,6.87451 0,1.29726 0.3889,2.72505 1.1673,4.28174 0.7784,1.47022 2.2486,2.81023 4.4108,4.02099 -1.5567,0.95133 -3.0695,2.24892 -4.5397,3.89209 -1.3836,1.72968 -2.0755,3.76164 -2.0755,6.09669 0,4.23767 2.8541,7.78375 8.562,10.6377 5.7077,2.94043 15.0046,4.41064 27.8905,4.41064 8.3889,0 15.9125,-0.64807 22.5717,-1.94531 6.6593,-1.29726 11.936,-3.24291 15.8278,-5.83741 3.8916,-2.5945 5.8373,-5.83775 5.8373,-9.72949 0,-4.0647 -1.7305,-7.00514 -5.1898,-8.82129 -3.3729,-1.90262 -7.5232,-2.85498 -12.4528,-2.85498 -2.4215,0 -5.4483,0.21648 -9.0805,0.64893 -3.6323,0.43242 -7.4387,0.95175 -11.417,1.55713 -3.9783,0.60538 -7.7832,1.12471 -11.4155,1.55713 -3.6324,0.43241 -6.703,0.64747 -9.211,0.64747 -4.497,0 -8.0417,-0.47545 -10.6362,-1.42678 -2.5945,-0.95131 -4.4539,-2.11871 -5.5781,-3.50243 -1.1243,-1.38374 -1.6875,-2.72375 -1.6875,-4.02099 0,-2.16209 0.8222,-3.97902 2.4654,-5.44922 1.7296,-1.47023 3.5889,-2.63762 5.5781,-3.50245 2.8539,2.50802 6.7453,4.36736 11.6746,5.57812 5.0161,1.1243 10.3791,1.64361 16.087,1.55713 5.8809,0 11.3288,-0.60565 16.3448,-1.8164 5.016,-1.21076 9.0375,-3.07011 12.0645,-5.57812 3.1134,-2.50802 4.6699,-5.70738 4.6699,-9.59912 0,-2.50802 -0.6921,-4.71408 -2.0757,-6.6167 -1.3838,-1.90264 -3.243,-3.5016 -5.5781,-4.79884 1.3838,-4.41063 3.4157,-7.52515 6.0967,-9.34131 2.6809,-1.81615 5.7515,-2.81091 9.2108,-2.98388 z m -558.57416,10.37843 c -7.697,0 -14.70282,0.95089 -21.01609,2.85351 -6.31328,1.81616 -11.32956,4.54153 -15.04836,8.17383 -3.63229,3.54583 -5.44775,7.95647 -5.44775,13.23193 0,5.18901 1.81546,9.64206 5.44775,13.36084 3.7188,3.63232 8.73508,6.444 15.04836,8.43312 6.31327,1.90262 13.31909,2.85351 21.01609,2.85351 7.78351,0 14.78786,-0.95089 21.01466,-2.85351 6.31327,-1.98912 11.28713,-4.8008 14.91943,-8.43312 3.7188,-3.71878 5.57814,-8.17183 5.57814,-13.36084 0,-5.27546 -1.85934,-9.6861 -5.57814,-13.23193 -3.6323,-3.6323 -8.60616,-6.35767 -14.91943,-8.17383 -6.2268,-1.90262 -13.23115,-2.85351 -21.01466,-2.85351 z m 133.12495,0 c -4.32411,0 -8.3895,0.86458 -12.19475,2.59424 -3.80529,1.64319 -7.26503,3.80534 -10.37843,6.48633 -3.02691,2.68098 -5.75082,5.62142 -8.17236,8.8213 v -16.73439 h -26.98241 v 3.11425 h 23.73924 v 40.34328 h -23.73924 v 2.98388 h 44.49608 v -2.98388 h -17.51367 v -23.34962 c 2.85395,-3.19988 5.79436,-6.1842 8.82128,-8.95167 3.02691,-2.85395 6.31406,-5.10241 9.85987,-6.7456 3.6323,-1.72965 7.6538,-2.59424 12.06439,-2.59424 5.1025,0 8.99389,1.12497 11.67483,3.37355 2.68094,2.16208 4.49793,5.1025 5.44922,8.82129 0.95129,3.6323 1.42671,7.69622 1.42671,12.19336 v 17.25293 h -17.64259 v 2.98388 h 38.26907 v -2.98388 h -17.51367 v -17.25293 c 0,-2.07561 -0.0854,-4.02126 -0.25916,-5.83742 2.85386,-3.28636 5.7944,-6.3131 8.82118,-9.08055 3.11347,-2.85395 6.48697,-5.14632 10.1192,-6.87599 3.63223,-1.72965 7.65386,-2.59424 12.06445,-2.59424 5.18896,0 9.12282,1.12497 11.80376,3.37355 2.68094,2.16208 4.49793,5.1025 5.44921,8.82129 0.95129,3.6323 1.42672,7.69622 1.42672,12.19336 v 17.25293 h -17.6426 v 2.98388 h 44.49622 v -2.98388 h -23.61036 v -17.25293 c 0,-5.36197 -0.69212,-10.07542 -2.07571,-14.14015 -1.29735,-4.15119 -3.54577,-7.39443 -6.7457,-9.72948 -3.11346,-2.33506 -7.48006,-3.50245 -13.10154,-3.50245 -4.41059,0 -8.56224,0.90847 -12.45407,2.72461 -3.89183,1.72967 -7.43782,4.02202 -10.63774,6.87597 -3.11347,2.85395 -5.88109,5.88069 -8.30264,9.08057 -0.86483,-5.62142 -2.89677,-10.11836 -6.09669,-13.49121 -3.19993,-3.45933 -8.17241,-5.18994 -14.9181,-5.18994 z m 268.06651,0 c -4.1512,0 -8.1726,0.64953 -12.0645,1.94679 -3.8918,1.21076 -7.568,2.80971 -11.0273,4.79881 -3.4593,1.98913 -6.6588,4.06497 -9.5991,6.22706 -2.8539,2.16209 -5.3628,4.10774 -7.525,5.83739 v -17.64257 h -26.9823 v 3.11425 h 23.7393 v 40.34328 h -23.7393 v 2.98388 h 47.7393 v -2.98388 h -20.757 v -22.70068 c 2.1622,-1.81616 4.6711,-3.76328 7.525,-5.83888 2.9403,-2.16207 6.1398,-4.23647 9.5991,-6.22557 3.4593,-1.98913 7.1355,-3.63344 11.0273,-4.93068 3.8919,-1.29726 7.9133,-1.94532 12.0645,-1.94532 4.8431,0 8.7767,0.77828 11.8037,2.33497 3.0268,1.55671 5.4055,3.63255 7.1351,6.22705 1.7297,2.59451 2.8972,5.53492 3.5025,8.82128 0.6919,3.1999 1.0386,6.44314 1.0386,9.72951 v 14.52832 h -20.8857 v 2.98388 h 46.5702 v -2.98388 h -22.4413 v -14.52832 c 0,-5.27549 -0.8221,-10.20546 -2.4653,-14.78906 -1.5567,-4.58363 -4.2806,-8.25843 -8.1724,-11.0259 -3.8918,-2.85395 -9.2533,-4.28173 -16.0854,-4.28173 z m 370.3154,0 c -5.1889,0 -10.2477,0.56175 -15.1772,1.68605 -4.9296,1.03779 -9.3842,2.63819 -13.3623,4.80028 -3.9783,2.16209 -7.1353,4.84358 -9.4704,8.04346 -2.3349,3.11339 -3.5024,6.74578 -3.5024,10.89697 0,4.92955 1.6867,9.16757 5.0596,12.71338 3.3728,3.45933 7.8699,6.13935 13.4914,8.04199 5.7077,1.81614 12.0655,2.72461 19.0706,2.72461 8.8214,0 16.2148,-0.95089 22.1821,-2.85351 5.9675,-1.90264 11.4168,-4.36762 16.3463,-7.39454 l -1.4282,-2.59424 c -4.7567,2.94043 -10.1181,5.36153 -16.0854,7.26417 -5.8809,1.81614 -12.8853,2.68072 -21.0148,2.59424 -6.5726,-0.0865 -12.455,-0.95107 -17.6439,-2.59424 -5.189,-1.72967 -9.2968,-4.10835 -12.3239,-7.13527 -2.9403,-3.11339 -4.4105,-6.70187 -4.4105,-10.76659 0,-0.95131 0.085,-1.90367 0.2591,-2.85498 6.6592,2.16209 13.2322,3.84881 19.7183,5.05957 6.4863,1.21076 13.1893,1.8164 20.108,1.8164 5.8808,0 11.156,-0.47542 15.8262,-1.42676 4.67,-1.03779 8.3462,-2.59432 11.0274,-4.66991 2.7674,-2.0756 4.1512,-4.79951 4.1512,-8.17236 0,-4.84307 -3.0266,-8.56322 -9.0806,-11.15773 -5.9673,-2.68098 -13.8814,-4.02099 -23.7406,-4.02099 z m 77.0845,0 v 19.19972 h 3.2431 v -16.34621 c 8.5618,0 16.0856,0.56322 22.5717,1.68752 6.4863,1.12427 12.3247,2.55059 17.5139,4.28027 5.1889,1.64317 10.075,3.3299 14.6585,5.05957 -3.1997,1.9891 -6.7897,3.67583 -10.768,5.05955 -3.9783,1.38375 -8.0422,2.72376 -12.1934,4.021 -4.8431,1.55671 -9.6429,3.28586 -14.3993,5.18848 -4.6702,1.81616 -8.9521,4.28114 -12.8439,7.39454 -3.8052,3.02691 -6.9182,7.04841 -9.3398,12.06445 l 2.8535,1.29785 c 1.2973,-2.50802 2.7676,-4.7565 4.4108,-6.7456 1.7296,-2.07561 3.6329,-3.89253 5.7084,-5.44922 8.043,3.37285 15.5242,6.27084 22.4428,8.69237 6.9188,2.33506 13.4051,3.50245 19.4591,3.50245 7.4376,0 13.058,-1.51409 16.8632,-4.541 3.8918,-3.11342 6.2704,-7.26365 7.1353,-12.45265 l -3.1128,-0.52002 c -0.8649,5.01602 -3.2011,8.69229 -7.0064,11.02734 -3.8052,2.33506 -8.3885,3.50245 -13.7504,3.50245 -5.4485,0 -11.4596,-0.99478 -18.0322,-2.9839 -6.5727,-2.07559 -13.7499,-4.71319 -21.5333,-7.91309 3.1999,-2.16207 6.6581,-3.97752 10.377,-5.44775 3.7187,-1.47021 7.4814,-2.81168 11.2866,-4.02246 4.7566,-1.47021 9.3837,-2.94041 13.8808,-4.41064 4.5837,-1.55669 8.6476,-3.54478 12.1933,-5.9663 2.508,-1.72967 4.7142,-3.71921 6.6168,-5.96778 1.9026,-2.24857 3.3291,-4.97248 4.2804,-8.17236 l -2.8537,-1.03858 c -0.8648,2.5945 -2.0761,4.88687 -3.6327,6.87597 -1.4702,1.90264 -3.2432,3.63179 -5.3189,5.18848 -4.7565,-1.72965 -9.729,-3.50269 -14.9179,-5.31885 -5.189,-1.90262 -11.2001,-3.50157 -18.0322,-4.79881 -6.7457,-1.29726 -14.9175,-1.94679 -24.5172,-1.94679 z m -592.46052,1.16748 v 3.11425 h 23.73932 v 40.34328 h -23.73932 v 2.98388 h 50.72312 v -2.98388 h -23.7406 v -43.45753 z m 329.84172,0 v 3.11425 h 22.1837 v 21.92287 c 0,8.12943 2.2924,13.96785 6.8759,17.51367 4.5837,3.45932 10.8098,5.18847 18.6797,5.18847 7.1782,0 13.8812,-1.2537 20.1079,-3.76172 6.3134,-2.5945 12.5834,-5.40618 18.8101,-8.4331 0.2594,3.89174 1.427,6.91848 3.5025,9.08057 2.0755,2.07559 4.6708,3.11425 7.7841,3.11425 2.1621,0 4.1078,-0.34671 5.8375,-1.03858 1.7296,-0.69186 3.4149,-1.59886 5.0581,-2.72314 l -1.2965,-2.59424 c -1.5565,1.12428 -3.0708,1.98886 -4.5408,2.59424 -1.4703,0.5189 -3.0693,0.77784 -4.7989,0.77784 -2.1622,0 -4.1092,-0.82216 -5.8389,-2.46533 -1.6432,-1.72968 -2.464,-4.4097 -2.464,-8.04199 v -34.24806 h -24.1289 v 3.11425 h 20.8858 v 29.57668 c -6.3133,3.1134 -12.7997,5.92361 -19.4589,8.43163 -6.6592,2.42154 -13.1457,3.63282 -19.4591,3.63282 -7.0916,-0.0865 -12.5832,-1.6869 -16.4751,-4.8003 -3.8051,-3.1134 -5.707,-8.08579 -5.707,-14.91796 v -25.03712 z m -585.97256,1.8164 c 7.26461,0 13.7511,0.82217 19.459,2.46534 5.79438,1.64319 10.37763,4.06429 13.75048,7.26417 3.37284,3.1134 5.05957,6.96228 5.05957,11.54588 0,4.49714 -1.68673,8.38845 -5.05957,11.67481 -3.37285,3.19988 -7.9561,5.66487 -13.75048,7.39454 -5.7079,1.72966 -12.19439,2.59424 -19.459,2.59424 -7.26458,0 -13.79496,-0.86458 -19.58934,-2.59424 -5.7079,-1.72967 -10.24726,-4.19466 -13.62013,-7.39454 -3.37285,-3.28636 -5.05955,-7.17767 -5.05955,-11.67481 0,-4.5836 1.6867,-8.43248 5.05955,-11.54588 3.37287,-3.1134 7.91223,-5.49208 13.62013,-7.13527 5.79438,-1.72965 12.32476,-2.59424 19.58934,-2.59424 z m 517.84126,0 c 5.4486,0 10.4208,0.51933 14.9181,1.55715 4.497,0.95131 8.0855,2.42151 10.7664,4.41064 2.6812,1.98912 4.0225,4.54041 4.0225,7.65381 0,3.02691 -1.3413,5.57821 -4.0225,7.65379 -2.6809,2.07561 -6.2694,3.63214 -10.7664,4.66993 -4.4973,1.0378 -9.4695,1.55713 -14.9181,1.55713 -5.2754,0 -10.163,-0.51933 -14.66,-1.55713 -4.4973,-1.03779 -8.0858,-2.59432 -10.7667,-4.66993 -2.6809,-2.07558 -4.021,-4.62688 -4.021,-7.65379 0,-3.1134 1.3401,-5.66469 4.021,-7.65381 2.6809,-1.98913 6.2694,-3.45933 10.7667,-4.41064 4.497,-1.03782 9.3846,-1.55715 14.66,-1.55715 z m 253.6656,0 c 9.1673,0 16.3895,1.08109 21.6651,3.24318 5.2754,2.0756 7.913,5.0599 7.913,8.95166 0,2.68097 -1.2537,4.84314 -3.7618,6.48631 -2.4215,1.6432 -5.7526,2.85301 -9.9902,3.63136 -4.1512,0.69186 -8.8208,1.03858 -14.0097,1.03858 -13.232,0 -26.2913,-2.11974 -39.1773,-6.35743 1.3838,-3.6323 3.979,-6.70146 7.7843,-9.20948 3.8052,-2.50802 8.2582,-4.41125 13.3607,-5.70849 5.189,-1.38372 10.5944,-2.07569 16.2159,-2.07569 z m -230.4449,40.08545 c 4.3242,0 7.7826,0.69197 10.3771,2.07569 2.6809,1.29724 4.0225,3.45942 4.0225,6.48633 0,3.28637 -1.817,6.01027 -5.4492,8.17236 -3.546,2.16209 -8.432,3.7186 -14.6587,4.66994 -6.227,1.03779 -13.2314,1.55712 -21.0148,1.55712 -11.9347,0 -20.4547,-1.21128 -25.5572,-3.63282 -5.016,-2.33505 -7.5234,-5.23158 -7.5234,-8.69093 0,-1.72965 0.5194,-3.37396 1.5572,-4.93065 1.1242,-1.47022 2.5507,-2.63762 4.2803,-3.50245 1.4701,0.5189 3.2433,0.95193 5.3188,1.29786 2.0755,0.34593 4.4544,0.51857 7.1353,0.51857 2.5945,0 5.7075,-0.17271 9.3398,-0.51857 3.7189,-0.43242 7.5676,-0.90786 11.5459,-1.42676 3.9782,-0.60538 7.7394,-1.08082 11.2852,-1.42675 3.6322,-0.43242 6.7468,-0.64894 9.3412,-0.64894 z"
     inkscape:label="Dominguez" />
</svg>
