<?xml version="1.0" encoding="UTF-8" standalone="no"?>
<svg
   version="1.0"
   width="612.82428pt"
   height="600.13861pt"
   viewBox="0 0 612.82427 600.1386"
   preserveAspectRatio="xMidYMid"
   id="svg61"
   sodipodi:docname="Piper.svg"
   inkscape:version="1.3.2 (091e20e, 2023-11-25, custom)"
   inkscape:export-filename="piper3.png"
   inkscape:export-xdpi="96"
   inkscape:export-ydpi="96"
   xmlns:inkscape="http://www.inkscape.org/namespaces/inkscape"
   xmlns:sodipodi="http://sodipodi.sourceforge.net/DTD/sodipodi-0.dtd"
   xmlns="http://www.w3.org/2000/svg"
   xmlns:svg="http://www.w3.org/2000/svg">
  <defs
     id="defs61">
    <rect
       x="823.59985"
       y="5.5275159"
       width="1873.8279"
       height="480.89389"
       id="rect2" />
    <rect
       x="852.06256"
       y="52.765343"
       width="1227.2828"
       height="683.99518"
       id="rect1" />
  </defs>
  <sodipodi:namedview
     id="namedview61"
     pagecolor="#505050"
     bordercolor="#ffffff"
     borderopacity="1"
     inkscape:showpageshadow="0"
     inkscape:pageopacity="0"
     inkscape:pagecheckerboard="1"
     inkscape:deskcolor="#505050"
     inkscape:document-units="pt"
     inkscape:zoom="0.25"
     inkscape:cx="1092"
     inkscape:cy="430"
     inkscape:window-width="1920"
     inkscape:window-height="1027"
     inkscape:window-x="1912"
     inkscape:window-y="-8"
     inkscape:window-maximized="1"
     inkscape:current-layer="svg61"
     showguides="true" />
  <metadata
     id="metadata1">
Created by potrace 1.10, written by Peter Selinger 2001-2011
</metadata>
  <g
     transform="matrix(0.10847785,0,0,-0.10847785,-119.48326,598.50378)"
     fill="#000000"
     stroke="none"
     id="g61"
     style="display:inline">
    <path
       d="m 4310,5380 c 0,-17 7,-20 40,-20 34,0 40,3 40,20 0,17 -3,19 -19,10 -13,-7 -22,-7 -26,0 -11,18 -35,11 -35,-10 z"
       id="path1" />
    <path
       d="m 4458,5368 c 9,-9 15,-9 24,0 9,9 7,12 -12,12 -19,0 -21,-3 -12,-12 z"
       id="path2" />
    <path
       d="m 4555,5308 c -9,-22 4,-43 17,-30 7,7 7,16 0,29 -10,17 -11,17 -17,1 z"
       id="path3" />
    <path
       d="m 3503,4620 c -3,-11 -9,-20 -14,-20 -5,0 -9,-6 -9,-13 0,-19 -49,-77 -139,-167 -42,-42 -91,-96 -110,-120 -41,-54 -131,-139 -148,-140 -18,0 -166,-157 -235,-250 -35,-47 -78,-114 -95,-150 -65,-136 -93,-201 -93,-214 0,-32 -62,-164 -112,-237 -21,-31 -38,-59 -38,-63 0,-3 -20,-40 -45,-80 -25,-41 -45,-77 -45,-80 0,-3 -17,-40 -37,-83 -37,-78 -100,-247 -110,-293 -3,-14 -11,-39 -19,-57 -8,-17 -14,-38 -14,-47 0,-8 -7,-32 -16,-53 -31,-71 -43,-98 -48,-113 -4,-8 -17,-33 -31,-55 -13,-22 -24,-51 -25,-65 0,-21 -20,-70 -71,-172 -5,-10 -9,-23 -9,-30 -1,-7 -14,-29 -30,-48 -17,-19 -30,-39 -30,-46 0,-6 -9,-19 -20,-29 -11,-10 -20,-22 -20,-26 0,-5 -23,-37 -51,-72 -28,-35 -56,-73 -62,-85 -31,-54 -101,-152 -108,-152 -5,0 -9,-5 -9,-11 0,-6 -20,-37 -45,-69 -25,-32 -45,-65 -45,-73 0,-8 -7,-17 -15,-21 -8,-3 -15,-14 -15,-24 0,-11 -7,-25 -15,-32 -8,-7 -15,-20 -15,-30 0,-10 -7,-20 -15,-24 -8,-3 -15,-14 -15,-24 0,-11 -7,-25 -15,-32 -8,-7 -15,-23 -15,-35 0,-12 -7,-28 -15,-35 -8,-7 -15,-23 -15,-35 0,-12 -6,-28 -14,-34 -8,-7 -17,-23 -20,-36 -4,-14 -11,-25 -16,-25 -6,0 -10,-13 -10,-28 0,-16 -7,-37 -15,-48 -8,-10 -15,-33 -15,-51 0,-17 -5,-44 -11,-60 -12,-28 -34,-142 -47,-243 -4,-30 -12,-62 -17,-70 -6,-8 -15,-51 -22,-95 -22,-151 -33,-208 -42,-219 -4,-6 -11,-42 -15,-80 -4,-38 -11,-76 -15,-85 -5,-9 -11,-44 -15,-78 l -7,-63 h 233 c 144,0 228,4 222,9 -5,5 -27,11 -49,13 -35,3 -40,6 -40,28 0,19 5,25 22,25 33,0 39,13 14,36 -13,12 -27,35 -33,51 -6,15 -19,33 -29,39 -27,14 -24,47 5,60 26,12 37,31 56,95 16,55 8,67 -41,59 -22,-4 -39,-3 -39,2 0,5 16,28 36,51 30,35 34,45 24,57 -7,8 -22,15 -34,15 -24,0 -46,17 -46,36 0,6 18,14 41,18 34,5 39,9 34,26 -8,25 25,42 72,38 51,-4 51,15 1,32 -50,18 -78,60 -57,86 11,13 10,15 -2,14 -31,-5 -49,1 -49,15 0,11 11,15 36,15 31,0 37,4 50,37 8,21 22,51 30,66 19,34 13,43 -46,60 l -44,13 47,27 c 26,16 45,32 42,36 -2,5 -24,12 -47,16 -40,6 -41,7 -18,16 31,13 101,1 116,-18 7,-10 18,-13 32,-9 27,9 29,36 3,36 -10,0 -24,7 -31,15 -7,8 -29,15 -49,15 -51,0 -67,12 -46,34 9,9 24,17 33,18 9,1 24,2 32,4 8,1 20,2 27,3 6,1 13,16 15,34 l 3,32 97,-3 c 115,-4 159,10 83,26 -34,7 -55,19 -68,36 -10,14 -27,26 -37,26 -10,0 -25,3 -34,6 -23,9 -3,39 34,52 31,11 41,32 16,32 -16,0 -46,26 -46,41 0,5 13,9 30,9 21,0 40,-11 70,-41 38,-38 43,-40 80,-34 30,5 47,2 65,-9 26,-17 95,-22 95,-7 0,5 -16,12 -36,15 -27,6 -33,10 -25,20 18,22 -9,36 -70,36 -83,0 -90,4 -72,42 14,28 14,32 -6,59 l -21,28 22,13 c 31,16 168,12 225,-7 24,-8 53,-15 63,-15 11,0 20,-4 20,-10 0,-5 9,-10 20,-10 31,0 92,-28 86,-39 -7,-11 48,-55 82,-66 12,-3 22,-11 22,-16 0,-5 11,-9 25,-9 27,0 35,24 11,33 -9,4 -12,14 -9,25 2,11 -3,32 -13,47 -18,27 -18,28 6,47 22,18 23,21 7,29 -9,6 -17,14 -17,19 0,16 36,12 50,-5 7,-9 29,-15 52,-15 22,0 67,-7 100,-16 42,-10 64,-12 71,-5 7,7 2,13 -16,20 -15,6 -27,14 -27,19 0,5 -34,12 -76,15 -54,4 -82,11 -96,24 -57,52 -77,76 -72,84 9,15 44,10 44,-6 0,-12 13,-15 61,-15 54,0 63,-3 87,-29 15,-16 39,-33 55,-36 15,-4 30,-11 33,-16 7,-12 44,-11 44,1 0,5 -8,14 -19,19 -10,6 -22,22 -25,36 -4,14 -13,25 -21,25 -10,0 -15,10 -15,28 0,15 -5,33 -11,39 -7,7 -7,13 -1,17 6,3 13,2 17,-4 3,-5 18,-7 34,-4 22,5 29,2 33,-14 5,-17 12,-20 45,-15 30,4 44,1 54,-11 57,-68 90,-93 129,-99 22,-3 55,-2 73,3 90,23 103,21 149,-21 23,-21 49,-37 56,-34 8,3 27,5 43,5 16,0 29,4 29,8 0,5 -13,7 -28,4 -22,-3 -32,2 -46,23 -17,26 -17,28 2,45 11,11 35,23 53,28 l 34,9 -30,12 c -16,6 -36,14 -43,16 -7,3 -12,15 -10,27 3,20 8,23 41,20 41,-4 48,9 21,39 -14,16 -14,20 7,48 18,24 26,28 40,20 27,-14 31,-26 14,-43 -13,-13 -13,-15 5,-21 23,-7 27,-35 5,-35 -8,0 -15,-9 -15,-20 0,-11 5,-20 10,-20 6,0 8,-11 4,-25 -5,-21 -3,-25 18,-25 13,0 29,5 35,11 8,8 13,8 17,0 4,-6 22,-11 39,-11 41,0 62,-14 54,-34 -5,-11 -1,-16 13,-16 12,0 20,7 20,16 0,12 6,15 23,10 130,-39 218,0 148,66 -31,29 -33,48 -5,48 8,0 17,-6 20,-14 3,-8 28,-20 55,-26 46,-11 50,-15 47,-39 -3,-25 -2,-26 52,-25 30,0 78,2 107,4 39,3 56,0 70,-13 23,-20 71,-23 133,-8 25,5 65,14 90,18 36,6 46,12 48,30 4,29 45,40 78,22 23,-12 27,-11 50,17 17,19 27,25 30,17 8,-18 49,-16 64,2 13,15 84,16 109,1 6,-4 11,-2 11,3 0,6 -7,11 -15,11 -25,0 -17,20 13,32 22,9 24,12 9,15 -10,3 -27,-3 -37,-12 -29,-26 -53,-14 -77,38 -15,30 -29,47 -41,47 -9,0 -39,20 -65,45 -46,44 -60,75 -34,75 16,-1 72,-51 80,-73 7,-18 37,-24 37,-8 0,6 -9,16 -20,24 -20,14 -20,14 0,32 20,18 21,18 48,-8 16,-15 39,-27 53,-27 14,0 31,-6 37,-12 10,-10 15,-10 22,2 6,9 6,16 0,18 -6,2 -10,10 -10,18 0,8 -8,14 -17,14 -22,1 -58,29 -67,53 -4,13 -12,17 -27,12 -19,-6 -21,-4 -16,14 3,11 1,24 -5,27 -5,3 -6,19 -3,35 6,25 4,29 -14,29 -12,0 -21,6 -21,15 0,8 7,15 15,15 8,0 15,7 15,15 0,9 -9,15 -25,15 -18,0 -25,5 -25,19 0,11 5,23 10,26 6,3 10,15 10,26 0,23 -28,26 -37,4 -5,-13 -8,-13 -20,5 -8,11 -23,20 -35,20 -11,0 -33,11 -50,25 -33,28 -88,34 -88,11 0,-8 16,-24 35,-36 38,-23 39,-45 2,-30 -41,16 -87,41 -93,51 -3,5 0,17 8,26 7,9 13,28 13,42 0,25 2,26 58,24 39,-1 57,2 57,10 0,14 -35,39 -65,47 -11,4 -20,15 -21,25 -2,38 -16,55 -52,61 -52,9 -92,35 -92,59 0,11 -4,25 -8,31 -8,12 -54,25 -89,26 -12,0 -24,6 -27,14 -8,21 -34,17 -41,-5 -7,-23 -47,-40 -53,-22 -2,6 -12,11 -21,11 -10,0 -30,9 -44,20 -35,27 -51,26 -43,-4 3,-14 2,-28 -4,-31 -22,-14 -7,-34 35,-46 32,-9 45,-19 45,-31 0,-21 -18,-23 -44,-3 -16,12 -23,12 -57,-8 -36,-20 -39,-21 -55,-5 -18,17 -12,38 12,38 8,0 14,5 14,11 0,6 -9,9 -20,6 -24,-6 -47,17 -28,29 7,5 24,7 37,5 19,-2 22,1 17,14 -3,9 -6,19 -6,21 0,3 -8,1 -17,-4 -25,-13 -83,-3 -83,14 0,8 9,14 20,14 26,0 26,17 0,25 -12,4 -26,0 -36,-9 -8,-9 -20,-16 -26,-16 -6,0 -16,-7 -23,-17 -7,-10 -17,-13 -25,-8 -10,6 -9,10 4,17 27,15 19,38 -14,38 -16,0 -30,-4 -30,-10 0,-5 -9,-10 -21,-10 -15,0 -19,5 -15,15 6,16 2,19 -47,30 -17,3 -35,18 -45,35 -16,29 -62,43 -62,20 0,-18 -22,-10 -27,10 -3,10 -16,26 -29,35 -13,8 -24,24 -24,34 0,10 -9,30 -21,45 l -20,26 h 21 c 13,0 24,8 27,20 5,19 23,29 23,12 0,-5 18,-20 40,-35 44,-29 47,-26 25,26 -12,30 -20,36 -43,35 -16,-1 -34,2 -41,6 -18,12 -13,36 9,36 21,0 28,24 10,35 -6,3 -7,18 -4,32 4,16 2,28 -7,34 -11,7 -11,9 3,9 10,0 22,-8 27,-19 16,-29 62,-56 71,-41 5,7 14,10 22,7 11,-4 13,2 10,24 -3,19 -10,29 -21,29 -25,0 -71,23 -71,36 0,6 -9,21 -20,34 -14,16 -26,21 -44,16 -21,-5 -27,-1 -42,29 -20,43 -13,71 14,56 13,-7 22,-7 29,0 6,6 21,8 34,4 13,-4 46,-8 74,-9 47,-1 50,0 47,23 -1,13 3,30 9,37 6,7 8,18 4,23 -3,6 0,21 6,33 19,34 21,174 4,214 -8,19 -18,34 -23,34 -23,0 -43,255 -22,276 6,6 13,58 17,115 6,111 16,151 34,147 8,-2 21,35 36,97 13,55 30,122 38,149 8,26 15,55 15,62 0,21 -21,17 -27,-6 z M 3200,3333 c 0,-5 -5,-15 -10,-23 -8,-12 -10,-11 -10,8 0,12 5,22 10,22 6,0 10,-3 10,-7 z m 172,-125 c -9,-9 -12,-7 -12,12 0,19 3,21 12,12 9,-9 9,-15 0,-24 z m 8,-367 c 0,-26 -13,-33 -45,-25 -25,6 -25,7 -9,25 23,25 54,25 54,0 z m 50,-61 25,-20 h -37 c -31,0 -38,4 -38,20 0,25 18,25 50,0 z m 228,-59 c 22,-19 29,-45 14,-55 -4,-2 -22,13 -40,35 -27,32 -30,39 -15,39 10,-1 28,-9 41,-19 z m 385,-3 c 21,-11 21,-12 -13,-19 -39,-8 -65,6 -40,21 20,13 27,12 53,-2 z m -453,-12 c 0,-22 -17,-28 -40,-16 -29,16 -25,30 10,30 19,0 30,-5 30,-14 z m 45,-55 c 6,-11 -33,-36 -42,-27 -3,3 -3,12 0,21 7,17 33,20 42,6 z m -147,-68 c 2,-8 -6,-13 -22,-13 -17,0 -26,5 -26,16 0,19 41,16 48,-3 z m 217,7 c 12,10 18,10 29,1 8,-7 25,-9 40,-5 29,7 31,2 16,-27 -12,-21 -45,-26 -56,-8 -4,6 -20,8 -40,4 -19,-3 -34,-2 -34,3 0,5 -9,12 -21,15 -12,3 -18,10 -15,16 4,6 16,6 36,-1 23,-7 34,-7 45,2 z m 469,4 c 22,-9 20,-24 -3,-24 -21,0 -34,13 -24,24 8,7 8,7 27,0 z m 76,-2 c 0,-13 -12,-22 -22,-16 -10,6 -1,24 13,24 5,0 9,-4 9,-8 z m -516,-177 c 4,-12 -4,-15 -46,-15 -69,0 -50,19 28,29 7,0 14,-6 18,-14 z m 754,-156 c -2,-6 -8,-10 -13,-10 -5,0 -11,4 -13,10 -2,6 4,11 13,11 9,0 15,-5 13,-11 z m -1620,-37 c 3,-9 -2,-13 -14,-10 -9,1 -19,9 -22,16 -3,9 2,13 14,10 9,-1 19,-9 22,-16 z m 1132,3 c 0,-11 -11,-15 -40,-15 -38,0 -49,8 -33,23 3,4 21,7 40,7 23,0 33,-5 33,-15 z m 100,0 c 0,-8 -7,-15 -15,-15 -8,0 -15,7 -15,15 0,8 7,15 15,15 8,0 15,-7 15,-15 z m -255,-6 c -4,-6 -13,-8 -20,-5 -7,2 -16,-2 -19,-10 -3,-8 1,-17 9,-20 16,-7 21,-34 5,-34 -5,0 -20,-11 -34,-25 -31,-31 -62,-32 -87,-2 -20,23 -25,57 -9,57 5,0 17,9 27,19 22,24 141,43 128,20 z m -907,-26 c -10,-2 -26,-2 -35,0 -10,3 -2,5 17,5 19,0 27,-2 18,-5 z m 145,-28 c -3,-13 -48,-18 -80,-10 -13,3 -21,10 -18,16 9,13 101,7 98,-6 z m 1064,0 c 3,-9 3,-19 -1,-22 -9,-10 -58,16 -51,27 10,16 45,12 52,-5 z m -589,-37 c 2,-11 -35,-13 -204,-10 -205,2 -254,7 -254,22 0,11 93,23 117,16 10,-3 34,-5 53,-6 149,-1 187,1 198,9 17,11 86,-13 90,-31 z m 382,-4 c 0,-10 -7,-14 -22,-12 -32,5 -35,28 -4,28 17,0 26,-5 26,-16 z m 166,-19 c 8,-19 42,-29 57,-17 8,7 18,6 31,-4 17,-12 17,-14 4,-14 -9,0 -24,-8 -34,-17 -22,-22 -75,-24 -91,-3 -10,12 -15,13 -32,3 -25,-16 -31,-16 -31,-3 0,5 14,16 30,25 17,9 30,22 30,30 0,19 29,19 36,0 z m -444,-27 c 30,4 39,2 34,-6 -4,-7 -16,-12 -27,-12 -10,0 -19,-4 -19,-10 0,-5 -7,-10 -15,-10 -8,0 -15,7 -15,15 0,8 -4,15 -10,15 -5,0 -10,5 -10,12 0,9 3,9 11,1 6,-6 28,-9 51,-5 z m -381,-21 c -1,-12 -15,-9 -19,4 -3,6 1,10 8,8 6,-3 11,-8 11,-12 z m 1089,-12 c 0,-8 -6,-15 -14,-15 -17,0 -28,14 -19,24 12,12 33,6 33,-9 z m -455,-24 c 8,-28 54,-37 71,-14 11,15 15,16 23,4 5,-8 25,-15 45,-15 20,-1 36,-4 36,-8 0,-5 -5,-8 -10,-8 -20,0 -23,-31 -4,-45 14,-10 16,-17 8,-25 -16,-16 -44,-1 -44,24 0,15 -9,27 -25,34 -36,17 -40,16 -112,-20 l -64,-31 -22,21 c -26,26 -19,34 30,37 48,3 46,1 33,25 -6,11 -8,25 -5,30 10,17 33,11 40,-9 z m 516,-36 c -1,-15 -24,-12 -29,3 -3,9 2,13 12,10 10,-1 17,-7 17,-13 z m -2301,-5 c 0,-5 -7,-10 -15,-10 -8,0 -15,5 -15,10 0,6 7,10 15,10 8,0 15,-4 15,-10 z m 1148,-6 c -9,-9 -21,-13 -27,-10 -20,13 -11,26 16,26 25,0 26,-1 11,-16 z m 498,5 c 3,-6 1,-16 -5,-22 -9,-9 -14,-8 -21,3 -5,8 -10,18 -10,23 0,11 28,8 36,-4 z m 449,-13 c 0,-9 -13,-25 -28,-34 -24,-15 -29,-15 -37,-2 -14,23 -12,28 18,43 33,18 47,16 47,-7 z m -996,-34 c 11,7 26,8 37,3 16,-8 13,-10 -14,-13 -18,-2 -36,-10 -39,-18 -8,-21 -41,-17 -48,6 -4,12 -1,28 6,36 10,12 14,12 26,-6 11,-16 17,-18 32,-8 z m 750,-1 c 10,-6 4,-11 -20,-16 -19,-4 -40,-12 -47,-18 -21,-16 -25,0 -5,21 19,22 49,27 72,13 z m 488,-7 c 3,-8 -1,-23 -10,-32 -15,-14 -17,-14 -23,1 -8,21 1,47 16,47 6,0 13,-7 17,-16 z m -2343,-20 c 9,-3 13,-10 10,-15 -6,-10 -45,-12 -69,-3 -13,5 -14,8 -3,15 15,10 40,11 62,3 z m 336,-19 c 0,-8 -9,-15 -20,-15 -11,0 -20,7 -20,15 0,8 9,15 20,15 11,0 20,-7 20,-15 z m 1691,-18 c -1,-12 -15,-9 -19,4 -3,6 1,10 8,8 6,-3 11,-8 11,-12 z m -1973,-35 c 3,-9 -2,-13 -14,-10 -9,1 -19,9 -22,16 -3,9 2,13 14,10 9,-1 19,-9 22,-16 z m 401,-59 c 2,-2 -16,-3 -41,-3 -45,0 -67,17 -53,41 5,6 72,-20 94,-38 z m 856,37 c 4,-6 -5,-10 -19,-10 -14,0 -26,5 -26,10 0,6 9,10 19,10 11,0 23,-4 26,-10 z m -385,-64 c 0,-8 9,-16 21,-19 12,-3 19,-11 17,-18 -7,-22 -29,-22 -35,-1 -2,11 -14,23 -26,26 -17,4 -18,7 -8,20 14,17 31,12 31,-8 z m -925,-63 c 11,-7 25,-13 32,-13 6,0 24,-11 39,-25 25,-23 26,-27 12,-41 -15,-15 -17,-14 -23,5 -3,12 -15,21 -26,21 -10,0 -28,9 -38,19 -11,11 -29,25 -41,31 -11,6 -18,15 -15,20 6,10 30,4 60,-17 z"
       id="path4" />
    <path
       d="m 3747,2174 c -10,-11 3,-24 24,-24 23,0 25,15 3,24 -19,7 -19,7 -27,0 z"
       id="path5" />
    <path
       d="m 4560,4471 c 0,-20 17,-37 27,-28 7,8 -7,47 -18,47 -5,0 -9,-9 -9,-19 z"
       id="path6" />
    <path
       d="m 3702,4125 c 1,-68 -24,-121 -65,-138 -17,-8 -38,-21 -46,-31 -12,-14 -10,-19 13,-41 14,-13 26,-29 26,-35 0,-20 41,-10 65,16 28,30 55,26 55,-9 0,-28 17,-47 42,-47 12,0 18,7 18,21 0,21 9,22 51,5 9,-4 27,2 42,15 23,17 27,26 22,53 -6,28 -3,34 21,45 22,10 25,14 13,22 -7,5 -22,9 -31,9 -11,0 -18,8 -18,19 0,14 -5,18 -19,14 -23,-6 -37,13 -22,31 13,16 3,28 -13,15 -48,-41 -60,-48 -67,-43 -5,3 -2,18 6,34 18,35 19,76 3,86 -6,4 -31,8 -54,8 l -43,1 z m 168,-117 c 30,-10 32,-12 14,-19 -26,-10 -37,-10 -53,0 -7,5 -10,14 -7,20 9,13 6,13 46,-1 z"
       id="path7" />
    <path
       d="m 4330,4105 c -7,-9 -10,-18 -7,-22 8,-7 37,15 37,28 0,14 -16,11 -30,-6 z"
       id="path8" />
    <path
       d="m 4460,4062 c 0,-19 12,-42 22,-42 14,0 5,43 -9,48 -7,2 -13,-1 -13,-6 z"
       id="path9" />
    <path
       d="m 4200,3895 c -12,-14 -6,-35 9,-35 12,0 21,39 11,45 -4,3 -13,-2 -20,-10 z"
       id="path10" />
    <path
       d="m 4350,3900 c 0,-5 9,-10 20,-10 11,0 20,5 20,10 0,6 -9,10 -20,10 -11,0 -20,-4 -20,-10 z"
       id="path11" />
    <path
       d="m 4426,3855 c 7,-18 0,-19 -26,-3 -25,16 -32,8 -24,-30 7,-35 25,-40 69,-20 30,13 32,29 7,51 -23,21 -33,22 -26,2 z"
       id="path12" />
    <path
       d="m 4230,3851 c 0,-6 5,-13 10,-16 6,-3 10,-17 10,-31 0,-27 24,-33 34,-9 8,23 -15,65 -36,65 -10,0 -18,-4 -18,-9 z"
       id="path13" />
    <path
       d="m 5607,3809 c -3,-11 -14,-23 -25,-26 -11,-3 -22,-16 -25,-31 -3,-15 -9,-35 -12,-44 -5,-13 -2,-18 9,-18 9,0 16,8 16,20 0,13 7,20 19,20 13,0 18,5 14,18 -2,10 5,26 16,36 11,10 17,24 14,32 -8,20 -20,17 -26,-7 z"
       id="path14" />
    <path
       d="m 3836,3773 c -9,-10 -7,-101 3,-107 11,-7 21,27 21,71 0,31 -11,49 -24,36 z"
       id="path15" />
    <path
       d="m 4192,3768 c -18,-18 -14,-46 8,-53 13,-4 20,-15 20,-31 0,-30 6,-30 36,-1 26,25 32,57 9,57 -8,0 -19,9 -25,20 -12,23 -30,26 -48,8 z"
       id="path16" />
    <path
       d="m 4305,3770 c -9,-14 1,-27 25,-33 16,-4 20,0 20,19 0,17 -6,24 -19,24 -11,0 -23,-4 -26,-10 z"
       id="path17" />
    <path
       d="m 5400,3760 c -17,-32 -14,-124 4,-153 25,-37 53,-35 65,6 5,17 16,49 24,70 7,20 12,51 9,67 -4,29 -6,31 -49,28 -28,-2 -48,-9 -53,-18 z"
       id="path18" />
    <path
       d="m 4616,3743 c -11,-11 -6,-23 9,-23 8,0 15,4 15,9 0,13 -16,22 -24,14 z"
       id="path19" />
    <path
       d="m 5320,3735 c -7,-8 -27,-15 -44,-15 -43,0 -63,-31 -40,-64 8,-14 29,-28 45,-31 16,-4 31,-11 34,-16 8,-12 42,-12 50,0 7,12 -17,141 -26,141 -4,0 -12,-7 -19,-15 z"
       id="path20" />
    <path
       d="m 4850,3690 c 0,-5 9,-10 21,-10 11,0 17,5 14,10 -3,6 -13,10 -21,10 -8,0 -14,-4 -14,-10 z"
       id="path21" />
    <path
       d="m 4787,3676 c -12,-10 -15,-16 -7,-21 16,-10 40,2 40,20 0,18 -9,19 -33,1 z"
       id="path22" />
    <path
       d="m 5962,3678 c 6,-18 28,-21 28,-4 0,9 -7,16 -16,16 -9,0 -14,-5 -12,-12 z"
       id="path23" />
    <path
       d="m 4863,3629 c -27,-32 -28,-39 -8,-39 9,0 20,12 26,27 14,38 7,44 -18,12 z"
       id="path24" />
    <path
       d="m 4987,3584 c -4,-4 -7,-15 -7,-25 0,-10 -9,-23 -20,-29 -11,-6 -20,-19 -20,-30 0,-10 -4,-22 -10,-25 -5,-3 -10,-13 -10,-21 0,-8 5,-14 10,-14 6,0 10,7 10,15 0,9 11,20 25,25 33,12 61,78 42,97 -7,7 -16,10 -20,7 z"
       id="path25" />
    <path
       d="m 3380,3100 c 0,-6 7,-13 15,-16 8,-4 15,-12 15,-20 0,-8 9,-14 20,-14 11,0 20,7 20,15 0,8 -7,15 -15,15 -9,0 -18,7 -21,15 -7,17 -34,21 -34,5 z"
       id="path32" />
    <path
       d="m 3690,3070 c 0,-6 8,-13 18,-17 9,-3 25,-13 35,-21 9,-8 20,-12 25,-8 4,4 -1,13 -11,20 -9,7 -17,18 -17,25 0,6 -11,11 -25,11 -14,0 -25,-5 -25,-10 z"
       id="path33" />
    <path
       d="m 3490,3061 c 0,-13 26,-32 33,-24 14,13 6,33 -13,33 -11,0 -20,-4 -20,-9 z"
       id="path34" />
    <path
       d="m 3355,2942 c 14,-15 40,-19 43,-7 1,6 -10,11 -25,13 -19,2 -25,0 -18,-6 z"
       id="path38" />
    <path
       d="m 3560,2908 c 0,-7 4,-19 9,-27 11,-17 25,3 17,24 -7,18 -26,20 -26,3 z"
       id="path39" />
    <path
       d="m 3772,2814 c 9,-10 24,-14 33,-10 23,9 9,26 -23,26 -24,0 -25,-1 -10,-16 z"
       id="path41" />
    <path
       d="m 4350,2671 c 0,-5 -9,-11 -20,-13 -12,-2 -21,-7 -21,-13 0,-5 9,-11 21,-13 28,-5 25,-19 -7,-35 l -27,-15 31,-15 c 23,-12 39,-14 62,-7 25,7 33,6 38,-6 7,-18 27,-18 43,1 7,8 20,15 30,15 10,0 20,9 23,21 4,16 11,19 27,14 18,-6 21,-3 18,12 -4,18 -40,20 -46,2 -7,-17 -32,-9 -32,11 0,24 -22,26 -40,5 -10,-12 -10,-18 0,-30 19,-23 7,-27 -26,-10 -16,8 -37,15 -47,15 -31,0 -12,25 21,28 39,4 41,15 7,30 -31,14 -55,15 -55,3 z"
       id="path42" />
    <path
       d="m 5007,2664 c -4,-5 -40,-9 -80,-11 -113,-4 -128,-7 -138,-25 -10,-19 4,-68 21,-68 5,0 10,4 10,9 0,4 17,20 38,33 33,23 45,25 102,21 72,-6 96,-22 147,-97 16,-23 33,-45 39,-51 20,-18 32,-71 25,-111 -14,-75 -112,-244 -142,-244 -26,0 -24,-19 4,-24 12,-3 62,-7 112,-11 70,-4 94,-10 110,-25 12,-11 24,-20 27,-20 4,0 7,28 6,63 0,34 5,110 10,170 6,69 6,120 0,145 -5,20 -13,57 -17,80 -10,57 -53,101 -106,109 -22,3 -46,11 -54,17 -7,6 -27,9 -43,7 -20,-2 -34,4 -46,19 -9,12 -21,18 -25,14 z"
       id="path43" />
    <path
       d="m 4386,2533 c -3,-3 -3,-10 0,-14 7,-12 34,-11 34,0 0,11 -26,22 -34,14 z"
       id="path44" />
    <path
       d="m 5006,2463 c -3,-3 -6,-21 -6,-39 0,-18 -4,-36 -10,-39 -5,-3 -10,-14 -9,-23 0,-13 3,-12 11,6 6,12 17,22 25,22 8,0 13,12 13,34 0,34 -11,52 -24,39 z"
       id="path45" />
    <path
       d="m 5085,2460 c -3,-6 0,-13 8,-16 8,-3 12,-14 10,-28 -7,-35 25,-43 38,-9 7,20 6,30 -7,44 -19,21 -39,24 -49,9 z"
       id="path46" />
    <path
       d="m 4646,2301 c -8,-13 4,-42 15,-35 12,7 12,44 0,44 -6,0 -12,-4 -15,-9 z"
       id="path47" />
    <path
       d="m 4580,2225 c 0,-8 5,-15 10,-15 6,0 10,7 10,15 0,8 -4,15 -10,15 -5,0 -10,-7 -10,-15 z"
       id="path48" />
    <path
       d="m 4700,2181 c 0,-5 -7,-17 -16,-26 -23,-23 -12,-28 24,-10 20,10 29,21 25,30 -6,16 -33,21 -33,6 z"
       id="path49" />
    <path
       d="m 5305,2000 c -7,-12 12,-40 27,-40 16,0 21,32 7,41 -18,12 -26,11 -34,-1 z"
       id="path50" />
    <path
       d="m 3256,1708 c -13,-8 -15,-13 -5,-24 17,-21 49,-18 49,5 0,23 -20,32 -44,19 z"
       id="path51" />
    <path
       d="m 3397,1699 c -21,-12 -13,-29 14,-29 12,0 19,7 19,20 0,22 -7,24 -33,9 z"
       id="path52" />
    <path
       d="m 1990,1556 c -59,-21 -50,-41 19,-43 33,-1 69,-7 80,-13 25,-13 101,-13 101,0 0,6 -10,14 -22,19 -13,5 -41,16 -63,24 -62,25 -78,26 -115,13 z"
       id="path56" />
    <path
       d="m 2135,1430 c -8,-24 1,-40 22,-40 13,0 13,-3 3,-15 -12,-14 -8,-15 26,-9 30,4 43,2 53,-10 15,-18 31,-21 31,-6 0,6 -8,14 -17,17 -10,4 -35,24 -55,45 -43,43 -54,46 -63,18 z"
       id="path58" />
    <path
       d="m 5543,1335 c -3,-9 2,-24 11,-34 9,-10 16,-23 16,-29 0,-6 14,-31 30,-54 17,-24 38,-54 48,-67 12,-19 17,-46 17,-108 0,-49 4,-83 10,-83 15,0 69,68 70,89 1,10 14,33 28,51 38,45 35,73 -13,111 -22,18 -40,37 -40,43 0,6 -9,17 -20,24 -11,7 -20,21 -20,33 v 20 l -27,-21 -27,-21 -26,30 c -27,34 -47,39 -57,16 z"
       id="path59" />
    <path
       d="m 5030,1220 c -8,-5 -12,-11 -9,-14 3,-3 14,1 25,9 21,16 8,20 -16,5 z"
       id="path60" />
    <path
       d="m 1732,1206 c 1,-10 8,-17 13,-17 15,1 12,24 -3,29 -9,3 -13,-2 -10,-12 z"
       id="path61" />
  </g>
  <g
     inkscape:groupmode="layer"
     id="layer1"
     inkscape:label="impot"
     style="display:inline"
     transform="matrix(1.0539356,0,0,1.0539356,-32.832909,-26.263029)">
    <path
       d="m 502.90205,195.77112 c -19.39004,7.05092 -39.66145,12.33912 -44.94963,12.7798 -16.30526,0 -15.86458,8.81365 0,15.42389 8.81365,3.52547 16.30525,8.81365 17.62731,11.89843 1.32204,3.08478 2.64408,1.32205 2.64408,-3.96614 0.44069,-9.25433 24.23756,-26.88163 54.64465,-40.10212 19.83072,-8.81365 22.03414,-6.16955 7.93229,8.81366 -7.4916,7.93228 -13.66116,17.18661 -13.66116,20.2714 0,3.08477 -3.08478,6.61024 -6.61024,7.93228 -3.52547,1.76273 -5.72888,4.40682 -4.40683,6.16956 1.32205,2.20341 -0.88137,7.05093 -4.84751,11.01706 -3.96614,3.96615 -5.72887,8.37297 -3.96614,10.13571 3.52546,3.52546 24.23754,-20.71209 24.23754,-28.20369 0,-2.64411 3.52547,-7.93229 7.49162,-11.01707 6.61023,-5.28818 7.05091,-5.28818 4.40681,1.76273 -1.76272,4.84751 -1.32204,7.05093 1.76274,5.28819 2.20341,-1.76273 3.52545,-5.28819 2.64409,-7.93228 -0.88136,-3.08478 1.76274,-10.1357 6.16955,-15.86458 4.84751,-5.72887 8.37298,-12.33912 8.37298,-14.10184 0,-7.05092 -23.79686,-3.08478 -59.49215,9.69501 z"
       id="path3-3"
       style="stroke-width:0.440683" />
    <path
       d="m 593.24198,234.5512 c -18.06799,8.37297 -58.1701,44.06827 -55.08533,49.35645 1.32206,1.76274 0,3.96614 -3.08477,4.84751 -2.6441,0.88137 -5.2882,5.72888 -6.16956,10.57638 -0.88136,6.16956 0.88136,5.2882 8.37296,-4.8475 5.2882,-7.05093 9.69503,-14.10185 9.69503,-15.42389 0,-5.72888 33.05119,-31.28848 50.6785,-39.22077 10.1357,-4.40682 16.74594,-9.25433 14.54253,-10.57638 -1.76274,-0.88136 -10.57638,1.32205 -18.94936,5.2882 z"
       id="path6-4"
       style="stroke-width:0.440683" />
    <path
       d="m 534.19052,238.51734 c -5.2882,8.37297 -16.30526,45.83099 -14.98322,49.79713 0.88137,2.6441 5.72888,-8.37296 10.57638,-24.23753 8.37297,-27.32233 9.69503,-33.93257 4.40684,-25.5596 z"
       id="path7-3"
       style="stroke-width:0.440683" />
    <path
       d="m 439.88443,267.6024 c -0.44068,7.4916 0.44068,7.93228 3.96614,2.64408 3.52546,-5.72886 4.40682,-5.72886 8.37297,0 11.01706,17.18663 12.77981,19.39005 16.30526,15.86459 1.76273,-1.76274 0,-5.2882 -4.40683,-7.4916 -3.96613,-2.64411 -6.61023,-6.16957 -5.72887,-7.9323 1.32205,-2.20341 -2.20342,-5.72887 -7.4916,-7.93229 -8.81366,-3.96614 -10.13571,-3.52546 -11.01707,4.84752 z"
       id="path8-6"
       style="stroke-width:0.440683" />
    <path
       d="m 496.2918,262.75488 c 0,3.08478 3.96614,13.66116 8.37298,23.35619 15.42389,32.16982 19.83072,52.44123 14.10184,68.3058 -5.28819,15.42389 -3.08478,21.59345 4.84751,13.66117 5.72887,-5.72888 8.37297,-36.13598 3.96614,-42.74622 -2.64409,-3.52547 -15.42389,-42.30554 -20.71209,-63.01762 -1.76272,-7.05093 -10.57638,-7.05093 -10.57638,0.44068 z"
       id="path9-1"
       style="stroke-width:0.440683" />
    <path
       d="m 573.41126,288.31447 c -21.15277,10.57638 -31.72914,20.27141 -13.22047,11.89844 29.08504,-12.7798 43.62757,-20.71208 37.45802,-20.71208 -3.52546,0 -14.54253,3.96614 -24.23755,8.81364 z"
       id="path11-1"
       style="stroke-width:0.440683" />
    <path
       d="m 481.3086,315.63681 c -7.05093,21.59343 -7.05093,21.15275 1.76273,16.30525 9.69501,-5.28819 10.57638,-7.93229 4.40683,-17.62732 -3.52547,-5.28818 -4.40683,-5.28818 -6.16956,1.32207 z"
       id="path14-6"
       style="stroke-width:0.440683" />
    <path
       d="m 412.56212,323.12841 c -5.2882,3.08478 -5.2882,5.28818 -0.88139,9.69501 3.96616,3.96614 5.2882,3.96614 5.2882,0 0,-9.69501 21.59345,-5.72887 28.64438,5.2882 7.93228,11.89842 4.84751,22.03413 -9.25434,33.93255 -7.05092,5.72887 -6.16956,6.16957 7.4916,8.37297 10.57639,1.76274 14.98321,4.40683 14.54253,9.69503 -0.88136,8.37296 9.69502,14.10185 13.66117,7.93228 1.32204,-2.20342 -0.44069,-9.25434 -4.40683,-14.98321 -3.96616,-6.16956 -7.05092,-15.42388 -6.61024,-21.15277 1.76272,-21.15277 -0.44068,-29.96641 -8.37297,-33.93256 -12.7798,-7.05092 -33.0512,-9.25434 -40.10211,-4.8475 z"
       id="path17-2"
       style="stroke-width:0.440683" />
    <path
       d="m 395.37548,357.06097 c 0,2.2034 1.76274,7.4916 3.96615,12.33911 2.6441,5.72888 3.96614,6.61024 3.96614,2.20341 0.44068,-5.72888 0.88136,-5.72888 4.84752,0 2.2034,3.52547 5.28819,4.84751 7.05091,3.08479 1.76273,-1.76274 -0.88136,-7.05092 -6.16955,-11.89844 -9.69502,-9.25433 -14.10185,-11.01707 -13.66117,-5.72887 z"
       id="path22-5"
       style="stroke-width:0.440683" />
    <path
       d="m 372.90067,369.84076 c 0,3.96614 10.13571,13.22048 21.15277,18.94935 12.77979,6.61024 12.33911,3.52546 -1.32205,-10.57637 -10.57638,-10.1357 -19.83072,-14.54253 -19.83072,-8.37298 z"
       id="path24-9"
       style="stroke-width:0.440683" />
  </g>
  <g
     inkscape:groupmode="layer"
     id="layer2"
     inkscape:label="import 2"
     transform="translate(-4.6146226,-8.902752)">
    <path
       d="m 348.93396,15.090788 c -22.10009,6.630022 -57.01823,34.918139 -67.18425,53.924191 -3.53602,6.630036 -9.72404,17.680078 -13.26006,25.1941 -3.97801,7.072041 -20.7741,26.962131 -37.57014,44.200191 -24.75212,25.6361 -34.91815,40.66415 -57.46024,86.19033 -14.58608,30.49811 -33.59214,72.0463 -41.99016,92.82035 -7.95602,20.7741 -25.63611,53.48222 -39.338137,72.93028 -32.70812,47.29419 -41.10615,68.06829 -52.59821,129.50652 -4.86203,28.28809 -10.60804,53.48219 -11.93406,56.1342 -1.32601,2.21004 -11.93404,16.35406 -22.9840804,30.94015 11.0688404,2.32289 6.7530304,3.8926 22.5421004,-1.76804 8.68777,-3.11471 7.95602,-20.77407 11.93404,-26.96207 5.74603,-9.28205 11.93406,-34.47616 20.33209,-81.77035 3.53601,-22.10006 16.35404,-59.6702 20.33207,-59.6702 2.65201,0 3.97801,-1.32602 3.53601,-3.53602 -1.32602,-4.42004 9.72404,-24.31009 15.91206,-28.28813 2.652017,-1.76801 4.862017,-5.746 4.862017,-8.84004 0,-3.09399 3.97802,-7.51399 9.28201,-10.16603 4.86204,-2.21 8.39803,-7.07201 7.07204,-10.60803 -0.88399,-3.09403 0,-7.07205 2.21,-8.84004 2.21003,-1.326 8.84005,-14.14406 14.14408,-28.2881 5.74602,-13.70207 12.81804,-25.19412 15.47004,-25.19412 3.53602,0 4.86204,-4.862 3.53602,-13.70206 -1.76799,-12.37601 -0.88398,-13.26004 7.51404,-10.60804 10.16603,3.09404 12.37606,-1.76797 4.42001,-9.72403 -7.51403,-7.51401 5.30404,-24.3101 13.70206,-18.56405 5.30401,3.536 5.30401,5.30399 1.326,7.07202 -3.09401,0.88399 -5.74605,3.97802 -5.74605,6.63001 0,3.09403 2.21005,3.09403 5.74605,-0.44199 3.53602,-2.65199 7.51403,-3.09403 9.28204,-1.326 1.76802,1.76799 0.884,-2.20999 -2.21001,-9.28205 -3.09402,-6.63 -7.07203,-11.93405 -9.28204,-11.93405 -1.768,0 -3.53604,-2.21 -3.53604,-4.42 0,-2.65203 2.65204,-4.42002 5.74605,-4.42002 3.09402,0 8.39803,-9.72403 11.49204,-22.10009 3.53602,-14.14404 11.49206,-28.2881 23.42609,-40.66413 13.70205,-15.02809 16.79608,-17.2381 15.47007,-8.84005 -1.32602,5.74602 0.442,11.05003 4.42001,13.70207 3.97802,1.76798 5.74603,6.18799 3.97802,8.84 -1.76799,2.65201 -5.74603,3.53601 -8.39803,2.21 -3.094,-1.76799 -3.97801,-1.32598 -1.76802,0.44201 1.76802,2.21001 -1.32598,8.39805 -6.63002,14.14407 l -9.28203,10.16603 h 9.28203 c 5.30404,0 9.72405,-1.76801 9.72405,-4.41999 0,-2.65204 3.97802,-2.65204 11.49203,0 6.18803,2.65198 11.93406,4.41999 13.26004,4.41999 3.97803,0 1.32602,-25.19409 -4.42001,-41.99017 -3.97802,-11.05003 -4.86201,-19.44807 -2.21,-22.10009 2.21,-2.21 3.97804,-7.956 3.97804,-13.26004 0,-5.30403 1.76797,-11.05005 3.97799,-13.70206 2.20999,-2.20999 7.07202,-14.14406 11.05006,-26.07811 7.072,-21.216074 32.70812,-59.228212 26.96209,-39.780149 -2.652,7.956026 -2.21,7.956026 3.094,-0.884018 11.93404,-19.448052 56.13423,-44.200137 60.11227,-33.150105 0.88399,3.094018 4.42,5.304018 7.956,5.304018 3.53603,0 6.63003,3.536027 6.63003,7.514052 1.326,19.448038 3.09402,26.962071 6.18803,32.70811 3.09403,4.86201 2.652,5.304003 -2.65199,0.883997 -5.74604,-4.420028 -6.18803,-1.768005 -4.86202,21.658058 1.32598,22.100107 0.44198,26.520137 -4.42005,22.984137 -3.09399,-2.65201 -11.49204,-4.86202 -18.56405,-5.30405 -7.07206,-0.44199 -15.47009,-3.09402 -18.56409,-5.74604 -3.53601,-2.65198 -6.18801,-3.97797 -6.18801,-2.65198 0,1.32599 6.18801,7.07204 13.70204,12.37604 11.05006,7.51404 14.58608,8.39803 17.23804,3.97801 3.09405,-4.86203 4.86204,-4.86203 10.60807,-0.44199 8.39803,7.07203 9.28204,15.47006 1.32603,12.37605 -3.53604,-1.32599 -6.18805,0.442 -6.18805,3.97802 0,3.536 1.768,6.18803 3.97801,6.18803 1.76801,0 3.53601,2.20998 3.53601,4.86201 0,2.20998 -1.768,3.09401 -4.42,1.76801 -6.63001,-4.42004 -5.304,-0.884 6.63004,15.47006 l 0.88398,-2.65202 c -3.09402,-5.30403 1.32602,-28.28813 5.30405,-28.28813 1.76799,0 3.09398,-8.84002 3.09398,-19.44805 -0.44199,-10.60805 0.88401,-18.564099 3.09402,-17.238094 1.76801,0.884024 3.09401,-11.492029 3.09401,-28.288099 0,-23.426064 -2.20999,-33.592114 -10.16604,-45.968174 L 369.26603,8.902752 Z"
       id="path1-5"
       style="display:inline;stroke-width:0.442"
       sodipodi:nodetypes="ccccccccccsccsccsccccsccsccscscsssscccsccccsscscsscscccscccccscsccccssscccsccsccc" />
  </g>
</svg>
